<svg width="38" height="38" viewBox="0 0 38 38" fill="none" xmlns="http://www.w3.org/2000/svg">
<circle cx="19" cy="19" r="19" fill="#AD8454"/>
<path d="M28.8881 24.9201V27.9201C28.8892 28.1986 28.8322 28.4743 28.7206 28.7294C28.6091 28.9846 28.4454 29.2137 28.2402 29.402C28.035 29.5902 27.7927 29.7336 27.5289 29.8228C27.265 29.912 26.9855 29.9452 26.7081 29.9201C23.631 29.5857 20.6751 28.5342 18.0781 26.8501C15.6619 25.3148 13.6135 23.2663 12.0781 20.8501C10.3881 18.2413 9.33636 15.2711 9.00812 12.1801C8.98313 11.9036 9.01599 11.6249 9.10462 11.3617C9.19324 11.0986 9.33569 10.8568 9.52288 10.6517C9.71008 10.4466 9.93792 10.2828 10.1919 10.1706C10.4459 10.0584 10.7205 10.0004 10.9981 10.0001H13.9981C14.4834 9.99532 14.9539 10.1672 15.3219 10.4836C15.6898 10.8001 15.9302 11.2395 15.9981 11.7201C16.1247 12.6802 16.3596 13.6228 16.6981 14.5301C16.8327 14.888 16.8618 15.277 16.782 15.651C16.7023 16.0249 16.517 16.3682 16.2481 16.6401L14.9781 17.9101C16.4017 20.4136 18.4746 22.4865 20.9781 23.9101L22.2481 22.6401C22.52 22.3712 22.8633 22.1859 23.2372 22.1062C23.6112 22.0264 24.0002 22.0556 24.3581 22.1901C25.2654 22.5286 26.2081 22.7635 27.1681 22.8901C27.6539 22.9586 28.0975 23.2033 28.4146 23.5776C28.7318 23.9519 28.9003 24.4297 28.8881 24.9201Z" stroke="white" stroke-width="2" stroke-linecap="round" stroke-linejoin="round"/>
</svg>
