<svg width="100" height="100" viewBox="0 0 100 100" fill="none" xmlns="http://www.w3.org/2000/svg">
<circle cx="51" cy="65" r="35" fill="#E3E9FB"/>
<g clip-path="url(#clip0)">
<path d="M90.1377 78.5394C90.0659 78.4952 89.9896 78.4555 89.9111 78.4196C87.253 77.0235 84.231 76.2323 81.0258 76.2323H78.6577C80.1385 74.3982 80.9694 72.091 80.9694 69.713C80.9694 69.066 80.9091 68.4175 80.7909 67.7858C80.4735 66.1012 80.8908 64.3808 81.9368 63.0662C83.3872 61.2428 84.186 58.9532 84.186 56.6186C84.186 54.7982 83.7061 53.0061 82.7989 51.4375C81.7674 49.653 81.6263 47.5472 82.4197 45.8024C83.0347 44.4512 83.346 43.0093 83.346 41.5154C83.346 39.4768 82.7539 37.5031 81.6339 35.8086C80.713 34.4155 80.3835 32.7111 80.7298 31.131C80.8893 30.404 80.9694 29.6547 80.9694 28.9048C80.9694 26.4199 80.076 24.0166 78.454 22.1375C77.2371 20.7283 76.7114 18.9743 77.012 17.3264C77.1806 16.3986 77.2226 15.4457 77.1349 14.4936C76.6901 9.63136 72.8425 5.7068 67.988 5.16358C67.8995 5.1529 67.8102 5.14451 67.7202 5.13688C66.2523 5.00947 64.8416 4.29154 63.7491 3.11432C61.7944 1.01166 59.0272 -0.195312 56.1578 -0.195312C53.9918 -0.195312 51.9288 0.463868 50.1962 1.68763C48.4635 0.463868 46.4005 -0.195312 44.2353 -0.195312C41.3651 -0.195312 38.5987 1.01166 36.6441 3.11509C35.5508 4.29154 34.1401 5.00947 32.6714 5.13688C32.5822 5.14451 32.4937 5.15367 32.4067 5.16358C27.5498 5.7068 23.7023 9.63136 23.2575 14.4943C23.1705 15.4457 23.2117 16.3986 23.3803 17.3264C23.6809 18.9743 23.1553 20.7283 21.9384 22.1375C20.3164 24.0166 19.4229 26.4206 19.4229 28.9055C19.4229 29.6555 19.5038 30.404 19.6625 31.131C20.0089 32.7111 19.6793 34.4155 18.7592 35.8094C17.6384 37.5039 17.0464 39.4768 17.0464 41.5154C17.0464 43.0093 17.3577 44.4512 17.9726 45.8024C18.7661 47.5472 18.6249 49.6537 17.5934 51.4375C16.6863 53.0061 16.2064 54.7982 16.2064 56.6194C16.2064 58.9532 17.0052 61.2428 18.4555 63.067C19.4901 64.3678 19.9028 66.1157 19.5877 67.8636C19.4367 68.7021 19.3886 69.5634 19.4466 70.4233C19.5931 72.6129 20.4308 74.621 21.74 76.2323H19.3642C8.79442 76.2323 0.195312 84.8314 0.195312 95.4012V97.8479C0.195312 98.9267 1.06964 99.801 2.14844 99.801C3.22724 99.801 4.10157 98.9267 4.10157 97.8479V95.4012C4.10157 86.9852 10.9482 80.1385 19.3642 80.1385H32.5623C33.8715 80.1385 35.122 79.8883 36.2725 79.4366C37.555 85.9521 43.3091 90.883 50.1946 90.883C57.0809 90.883 62.835 85.9521 64.1176 79.4359C65.2681 79.8875 66.5193 80.1385 67.8277 80.1385H68.7456L65.973 90.0507C65.6823 91.089 66.2889 92.1671 67.3272 92.4577C67.5035 92.5066 67.6805 92.5302 67.8544 92.5302C68.7089 92.5302 69.4932 91.9656 69.7343 91.1028L72.8013 80.1378H78.1709L73.3156 97.32C73.0218 98.3576 73.6261 99.4371 74.6637 99.7301C74.8415 99.7804 75.02 99.8049 75.1962 99.8049C76.0477 99.8049 76.8312 99.2426 77.0746 98.382L82.1527 80.4132C82.1741 80.3384 82.1886 80.2629 82.2008 80.1881C83.8052 80.311 85.3403 80.681 86.7685 81.2639L82.1085 97.3024C81.8071 98.3385 82.403 99.4219 83.439 99.7232C83.6214 99.7759 83.8045 99.801 83.9845 99.801C84.8314 99.801 85.6111 99.2464 85.8598 98.3927L90.2574 83.2574C93.9196 86.0475 96.2885 90.452 96.2885 95.4012V97.8479C96.2885 98.926 97.1628 99.801 98.2416 99.801C99.3204 99.801 100.195 98.926 100.195 97.8479V95.4012C100.195 88.1273 96.1222 81.7865 90.1377 78.5394V78.5394ZM35.8185 57.7043C34.1271 55.008 33.2177 51.8838 33.2177 48.6428V45.3294C33.2177 44.2513 32.3434 43.3762 31.2646 43.3762C29.6563 43.3762 28.3478 42.0686 28.3478 40.4595V37.7885C28.3478 36.1809 29.6563 34.8725 31.2646 34.8725C32.3434 34.8725 33.2177 33.9974 33.2177 32.9194V32.1213C33.2177 22.7593 40.8341 15.1428 50.1962 15.1428C59.5582 15.1428 67.1747 22.7593 67.1747 32.1213V32.9194C67.1747 33.9974 68.049 34.8725 69.1278 34.8725C70.7345 34.8725 72.0415 36.1794 72.0415 37.7862V40.4618C72.0415 42.0693 70.7345 43.3762 69.1278 43.3762C68.049 43.3762 67.1747 44.2506 67.1747 45.3294V48.8587C67.1747 52.0501 66.282 55.1225 64.6241 57.7775C63.7559 56.5393 62.5085 55.6031 61.0383 55.1217L58.941 54.4351C53.2189 52.5613 47.1703 52.5613 41.4483 54.4351L39.3517 55.1217C37.9105 55.594 36.6837 56.5034 35.8185 57.7043V57.7043ZM38.6048 60.6866C38.9512 59.8039 39.6668 59.1287 40.5671 58.8342L42.6637 58.1475C45.1272 57.3411 47.6609 56.9383 50.1946 56.9383C52.7284 56.9383 55.2621 57.3411 57.7256 58.1475L59.8222 58.8342C60.7232 59.1294 61.4389 59.8046 61.7852 60.6866C62.1324 61.5686 62.0675 62.5505 61.6082 63.3798C59.0898 67.9269 55.0538 71.3884 50.1946 73.1859C45.3362 71.3884 41.3003 67.9269 38.7818 63.3798C38.3225 62.5505 38.2577 61.5686 38.6048 60.6866V60.6866ZM50.1946 86.9768C44.6244 86.9768 40.0773 82.5243 39.9178 76.9914C40.9402 75.9248 41.7329 74.6385 42.2173 73.2095C44.4184 74.8865 46.8965 76.2086 49.5728 77.1074C49.775 77.1753 49.9848 77.2096 50.1946 77.2096C50.4052 77.2096 50.615 77.1753 50.8172 77.1074C53.4944 76.2086 55.9724 74.8865 58.1727 73.2087C58.6572 74.6377 59.4499 75.9248 60.4722 76.9914C60.3128 82.5243 55.7656 86.9768 50.1946 86.9768ZM61.5434 70.1234C62.8778 68.6609 64.0481 67.0358 65.0255 65.2726C65.4863 64.4395 65.7678 63.5377 65.8693 62.6184C69.2346 58.8166 71.0809 53.9598 71.0809 48.8587V46.9979C73.8931 46.1556 75.9477 43.5448 75.9477 40.4626V37.7869C75.9477 34.6978 73.884 32.0817 71.0626 31.2455C70.6026 20.134 61.419 11.2366 50.1962 11.2366C38.9741 11.2366 29.7913 20.1348 29.3297 31.2455C26.5069 32.0817 24.4423 34.6985 24.4423 37.7892V40.4603C24.4423 43.5433 26.4985 46.1556 29.3114 46.9979V48.6428C29.3114 53.756 31.1516 58.6343 34.5063 62.4635C34.5917 63.437 34.8778 64.393 35.3654 65.2726C36.3419 67.0366 37.5123 68.6616 38.8467 70.1242C38.7505 73.5086 35.9696 76.2323 32.5623 76.2323H29.7387C29.6044 76.1926 29.464 76.1651 29.3183 76.1552C26.1269 75.9317 23.5581 73.3552 23.3445 70.1616C23.3078 69.6206 23.3376 69.0805 23.4322 68.5563C23.9472 65.7029 23.2476 62.8152 21.5134 60.6347C20.5971 59.4834 20.1134 58.0941 20.1134 56.6186C20.1134 55.4833 20.411 54.3679 20.9755 53.3921C22.6372 50.5174 22.844 47.0757 21.5287 44.1842C21.1464 43.345 20.9526 42.447 20.9526 41.5154C20.9526 40.2451 21.3211 39.0168 22.0177 37.9624C23.5177 35.6942 24.0502 32.8988 23.4787 30.2933C23.3796 29.8409 23.3292 29.374 23.3292 28.9048C23.3292 27.3568 23.8854 25.8599 24.8955 24.6903C26.8883 22.3816 27.7375 19.4428 27.224 16.626C27.1187 16.0469 27.0928 15.4488 27.1477 14.8491C27.4247 11.8241 29.8188 9.38341 32.8446 9.04466C32.9003 9.0378 32.956 9.03246 33.0102 9.02788C35.4455 8.81731 37.7518 7.66069 39.5058 5.77317C40.741 4.44337 42.421 3.71094 44.2353 3.71094C45.9657 3.71094 47.5907 4.38615 48.8122 5.61296C49.1792 5.98146 49.6766 6.18821 50.1962 6.18821C50.7157 6.18821 51.2139 5.98146 51.5809 5.61296C52.8016 4.38615 54.4274 3.71094 56.1578 3.71094C57.9721 3.71094 59.6513 4.44337 60.8873 5.77394C62.6413 7.66145 64.9484 8.81731 67.3822 9.02864C67.4371 9.03322 67.4928 9.03856 67.5508 9.04543C70.5743 9.38341 72.9684 11.8248 73.2454 14.8499C73.3003 15.4496 73.2744 16.0469 73.1691 16.6268C72.6556 19.4435 73.5048 22.3824 75.4976 24.6903C76.5077 25.8606 77.0639 27.3575 77.0639 28.9055C77.0639 29.3747 77.0135 29.8417 76.9144 30.2941C76.3429 32.8995 76.8755 35.6949 78.3754 37.9632C79.072 39.0176 79.4397 40.2459 79.4397 41.5154C79.4397 42.4477 79.2459 43.345 78.8644 44.185C77.5491 47.0757 77.7551 50.5181 79.4176 53.3929C79.9814 54.3687 80.2797 55.4841 80.2797 56.6194C80.2797 58.0949 79.796 59.4834 78.8797 60.6355C77.1272 62.8389 76.4246 65.7083 76.9517 68.509C77.0265 68.9035 77.0639 69.3086 77.0639 69.7137C77.0639 71.5234 76.3345 73.2011 75.0101 74.4363C73.6879 75.6715 71.9591 76.2834 70.1417 76.156C69.9037 76.14 69.6725 76.169 69.4566 76.233H67.8285C64.4204 76.2323 61.6395 73.5078 61.5434 70.1234V70.1234Z" fill="#3B575E"/>
<path d="M39.2305 33.4565H46.103C47.3062 33.4565 48.2858 34.4353 48.2858 35.6385V47.6373C48.2858 48.7161 49.1601 49.5904 50.2389 49.5904C51.317 49.5904 52.192 48.7161 52.192 47.6373V35.6385C52.192 32.2816 49.46 29.5502 46.103 29.5502H39.2305C38.1517 29.5502 37.2773 30.4246 37.2773 31.5034C37.2773 32.5814 38.1517 33.4565 39.2305 33.4565V33.4565Z" fill="#3B575E"/>
<path d="M50.1946 64.9667C51.8105 64.9667 53.3287 64.3373 54.4709 63.1959C55.233 62.433 55.233 61.1963 54.4709 60.4333C53.7079 59.6711 52.4712 59.6711 51.7083 60.4333C51.3047 60.8377 50.7668 61.0605 50.1954 61.0605C49.6232 61.0605 49.0861 60.8377 48.6817 60.4333C47.9188 59.6711 46.682 59.6711 45.9199 60.4333C45.1569 61.1963 45.1569 62.4322 45.9199 63.1959C47.0612 64.3373 48.5795 64.9667 50.1946 64.9667V64.9667Z" fill="#3B575E"/>
<path d="M45.215 41.8229C45.978 41.06 45.978 39.8232 45.215 39.0603C44.4529 38.2981 43.2161 38.2981 42.4532 39.0603C41.6185 39.8949 40.2605 39.8949 39.4258 39.0603C38.6637 38.2981 37.4269 38.2981 36.664 39.0603C35.9011 39.8232 35.9011 41.06 36.664 41.8229C37.8427 43.0017 39.3908 43.5906 40.9395 43.5906C42.4883 43.5906 44.0371 43.0009 45.215 41.8229Z" fill="#3B575E"/>
<path d="M62.0333 39.0603C61.1986 39.8949 59.8406 39.8949 59.0059 39.0603C58.243 38.2981 57.0063 38.2981 56.2441 39.0603C55.4811 39.8232 55.4811 41.06 56.2441 41.8229C57.4228 43.0017 58.9708 43.5906 60.5196 43.5906C62.0676 43.5906 63.6164 43.0017 64.7951 41.8229C65.5581 41.06 65.5581 39.8232 64.7951 39.0603C64.0329 38.2981 62.7962 38.2981 62.0333 39.0603Z" fill="#3B575E"/>
<path d="M56.6221 33.4565H62.618C63.6968 33.4565 64.5712 32.5814 64.5712 31.5034C64.5712 30.4246 63.6968 29.5502 62.618 29.5502H56.6221C55.5433 29.5502 54.6689 30.4246 54.6689 31.5034C54.6689 32.5814 55.5433 33.4565 56.6221 33.4565Z" fill="#3B575E"/>
<path d="M65.8196 95.894C65.3061 95.894 64.8026 96.1031 64.4387 96.4662C64.0755 96.8294 63.8665 97.3337 63.8665 97.8472C63.8665 98.3606 64.0755 98.8649 64.4387 99.2281C64.8026 99.5928 65.3061 99.8003 65.8196 99.8003C66.3338 99.8003 66.8374 99.5928 67.2005 99.2281C67.5637 98.8649 67.7727 98.3606 67.7727 97.8472C67.7727 97.3337 67.5637 96.8294 67.2005 96.4662C66.8374 96.1031 66.3338 95.894 65.8196 95.894Z" fill="#3B575E"/>
</g>
<defs>
<clipPath id="clip0">
<rect width="100" height="100" fill="white"/>
</clipPath>
</defs>
</svg>
