<svg width="100" height="100" viewBox="0 0 100 100" fill="none" xmlns="http://www.w3.org/2000/svg">
<circle cx="51" cy="65" r="35" fill="#E3E9FB"/>
<g clip-path="url(#clip0)">
<path d="M85.9448 -1.52588e-05H81.6453C79.7554 -1.52588e-05 79.7554 2.9301 81.6453 2.9301H85.9448C90.3848 2.9301 93.9973 6.52944 93.9973 10.9535V44.8592C93.9973 49.2835 90.385 52.8828 85.9448 52.8828H81.0685C80.7467 52.8828 80.434 52.9887 80.1783 53.1842L71.2305 60.0286V54.3479C71.2305 53.5388 70.5748 52.8828 69.7655 52.8828H51.9348C50.4746 52.8828 49.0713 52.4974 47.8336 51.7647V35.3186C47.8336 32.238 46.2646 29.5164 43.882 27.9062V10.9535C43.882 6.52944 47.4945 2.9301 51.9348 2.9301H72.4643C74.354 2.9301 74.354 -1.52588e-05 72.4643 -1.52588e-05H51.9348C45.8788 -1.52588e-05 40.9519 4.91378 40.9519 10.9535V26.6185C40.2811 26.4583 39.5822 26.371 38.8629 26.371H12.0434C7.09721 26.371 3.073 30.3848 3.073 35.3186V38.4821C3.073 40.3718 6.00311 40.3718 6.00311 38.4821V35.3186C6.00311 32.0005 8.71268 29.3011 12.0434 29.3011H38.8631C42.1939 29.3011 44.9037 32.0005 44.9037 35.3186V52.348C44.8861 52.4773 44.8869 52.6076 44.9037 52.7359V62.056C44.9037 62.2402 44.8925 62.4237 44.8759 62.6061H41.8546C38.5254 62.6061 35.75 65.009 35.1745 68.1671C35.0413 68.2173 34.9133 68.2874 34.7948 68.3788L28.2421 73.4383V69.5386C28.2421 68.7295 27.5863 68.0735 26.777 68.0735H12.0434C8.71268 68.0735 6.00311 65.3741 6.00311 62.056V47.2724C6.00311 45.3827 3.073 45.3827 3.073 47.2724V62.0562C3.073 66.9899 7.09721 71.0038 12.0434 71.0038H25.3122V76.4206C25.3122 77.5958 26.7391 78.3008 27.6726 77.5803L35.0634 71.8739V88.3557C35.0634 92.0916 38.1101 95.1307 41.8548 95.1307H50.8453V98.5494C50.8453 99.7242 52.2723 100.43 53.2056 99.7091L59.1354 95.1307H60.8872C64.6319 95.1307 67.6786 92.0914 67.6786 88.3557V85.7546C67.6786 83.8648 64.7485 83.8648 64.7485 85.7546V88.3557C64.7485 90.476 63.0164 92.2006 60.8872 92.2006H58.6355C58.3115 92.2006 57.9966 92.3081 57.7403 92.5059L53.7753 95.5671V93.6655C53.7753 92.8564 53.1195 92.2004 52.3102 92.2004H41.8546C39.7256 92.2004 37.9933 90.4756 37.9933 88.3555V69.3813C37.9933 67.2611 39.7254 65.5364 41.8546 65.5364H60.8872C63.0162 65.5364 64.7485 67.2613 64.7485 69.3813V76.5736C64.7485 78.4633 67.6786 78.4633 67.6786 76.5736V69.3815C67.6786 65.6456 64.6319 62.6065 60.8872 62.6065H47.817C47.8281 62.4235 47.8338 55.0238 47.8338 55.0238C49.1256 55.5432 50.5105 55.8131 51.9349 55.8131H68.3006V62.9939C68.3006 64.1661 69.7215 64.8719 70.6558 64.1575L81.5648 55.8131H85.9449C92.0007 55.8131 96.9276 50.8993 96.9276 44.8594V10.9535C96.9274 4.91378 92.0005 -1.52588e-05 85.9448 -1.52588e-05V-1.52588e-05Z" fill="#3B575E"/>
<path d="M72.6001 10.8242C70.7399 10.3493 68.8443 11.8191 68.8443 13.7412C68.8443 15.8413 68.0789 17.8652 66.6903 19.4391L62.6537 24.0068C62.3924 23.6057 61.9407 23.3403 61.4264 23.3403H53.5464C52.7371 23.3403 52.0813 23.9962 52.0813 24.8053V42.5354C52.0813 43.3445 52.7371 44.0005 53.5464 44.0005H61.4264C62.0185 44.0005 62.5272 43.6487 62.7582 43.1435C64.3536 44.1183 66.2023 44.6453 68.0832 44.6453H82.0095C84.1375 44.6453 85.893 42.7987 85.7932 40.6762C85.7489 39.7362 85.7973 27.1146 85.7973 26.8343C85.7973 24.7457 84.0981 23.0463 82.0138 23.0463L74.7719 23.0246L75.0717 22.3145C76.4421 19.0693 76.2164 15.3063 74.4689 12.2478C74.061 11.5333 73.3971 11.0279 72.6001 10.8242C71.8027 10.6206 73.3971 11.0279 72.6001 10.8242C70.7401 10.3493 73.3971 11.0279 72.6001 10.8242V10.8242ZM59.9614 41.0704H55.0114V26.2704H59.9614V41.0704ZM82.0095 25.9762C82.4826 25.9762 82.8674 26.361 82.8674 26.8341C82.8674 27.1129 82.8645 27.8694 82.8606 28.8952C82.8389 34.5585 82.8244 39.9221 82.8662 40.8137C82.8815 41.1354 82.725 41.3499 82.6305 41.4491C82.4668 41.6206 82.2462 41.715 82.0095 41.715H68.0832C66.4232 41.715 64.7986 41.1397 63.5082 40.0952L62.8915 39.5959V28.1624L68.8867 21.3784C70.7488 19.268 71.7744 16.5557 71.7744 13.741C71.7744 13.6582 71.8875 13.6367 71.925 13.7012C73.2225 15.9716 73.3897 18.7652 72.3725 21.1743L71.2163 23.9128C71.0254 24.3646 71.0735 24.8817 71.3437 25.2907C71.6142 25.6998 72.0713 25.9463 72.5614 25.9479L82.0095 25.9762Z" fill="#3B575E"/>
<path d="M15.6176 50.8859C14.8083 50.8859 14.1526 51.5418 14.1526 52.3509C14.1526 53.16 14.8083 53.816 15.6176 53.816H19.9362L19.1295 58.6954C18.9974 59.4936 19.5377 60.2478 20.3359 60.3798C20.417 60.3933 20.4973 60.3998 20.5766 60.3998C21.2806 60.3998 21.9016 59.8909 22.0203 59.1734L22.906 53.8162H26.4403L25.6335 58.6956C25.5015 59.4938 26.0418 60.248 26.84 60.38C26.921 60.3935 27.0013 60.4 27.0806 60.4C27.7846 60.4 28.4056 59.8911 28.5244 59.1736L29.4101 53.8164H35.2884C36.0977 53.8164 36.7535 53.1604 36.7535 52.3513C36.7535 51.5422 36.0977 50.8863 35.2884 50.8863H29.8945L30.4854 47.3123H35.2884C36.0977 47.3123 36.7535 46.6564 36.7535 45.8473C36.7535 45.0382 36.0977 44.3822 35.2884 44.3822H30.9699L31.7766 39.5028C31.9087 38.7046 31.3684 37.9504 30.5702 37.8184C29.7711 37.6859 29.0178 38.2266 28.8858 39.0248L28.0001 44.382H24.4658L25.2726 39.5026C25.4046 38.7044 24.8643 37.9502 24.0661 37.8182C23.266 37.6857 22.514 38.2264 22.3817 39.0246L21.496 44.3818H15.6176C14.8083 44.3818 14.1526 45.0378 14.1526 45.8469C14.1526 46.656 14.8083 47.3119 15.6176 47.3119H21.0116L20.4207 50.8859H15.6176ZM23.9815 47.3119H27.5158L26.9249 50.8859H23.3906L23.9815 47.3119Z" fill="#3B575E"/>
<path d="M51.3534 73.0957C50.1704 72.1217 48.5965 71.7375 47.0178 72.1213C44.9946 72.6126 42.9531 74.5039 42.9531 77.6213C42.9531 79.5617 43.6612 81.2459 45.1179 82.7703C46.3077 84.0156 48.0248 85.1998 50.6849 86.6101C50.8996 86.724 51.1354 86.7809 51.3711 86.7809C51.6069 86.7809 51.8427 86.724 52.0574 86.6101C56.6983 84.1498 59.789 81.6797 59.789 77.6213C59.789 74.4869 57.675 72.6149 55.5798 72.1502C54.0057 71.801 52.4797 72.1717 51.3534 73.0957V73.0957ZM56.8587 77.6213C56.8587 79.8103 55.4067 81.4291 51.371 83.6507C47.3352 81.4289 45.883 79.8101 45.883 77.6213C45.883 75.9926 46.8261 75.1831 47.7089 74.9686C47.8716 74.9292 48.0459 74.9069 48.225 74.9069C48.8889 74.9069 49.6189 75.2136 50.069 76.0862C50.3255 76.5827 50.8439 76.8906 51.4001 76.879C51.9585 76.8679 52.4623 76.5401 52.6985 76.0338C53.1726 75.0176 54.1696 74.8389 54.9447 75.011C55.8702 75.2159 56.8587 76.0096 56.8587 77.6213V77.6213Z" fill="#3B575E"/>
</g>
<defs>
<clipPath id="clip0">
<rect width="100" height="100" fill="white"/>
</clipPath>
</defs>
</svg>
