<svg width="100" height="100" viewBox="0 0 100 100" fill="none" xmlns="http://www.w3.org/2000/svg">
<g clip-path="url(#clip0)">
<circle cx="51" cy="65" r="35" fill="#E3E9FB"/>
<path d="M5.87343 80.6996C5.93613 81.2262 6.21054 81.7049 6.6332 82.0252C7.05624 82.3459 7.59101 82.4797 8.11503 82.3983C8.23241 82.3797 19.9121 80.5815 26.0207 82.3451C34.8298 84.8901 40.7353 91.2063 42.2243 92.9361C42.6025 96.8938 45.9448 99.9998 50.0001 99.9998C54.0561 99.9998 57.3991 96.8924 57.7761 92.9334C59.2602 91.2014 65.1321 84.901 73.9793 82.345C80.0784 80.5846 91.7684 82.3797 91.8856 82.3981C92.9801 82.569 93.9965 81.7959 94.127 80.6994L96.0176 64.8182C96.1451 63.7471 95.3801 62.7753 94.309 62.6479C93.2389 62.5216 92.2664 63.2854 92.1387 64.3563L90.4826 78.2672C86.6471 77.8022 78.228 77.0526 72.8956 78.592C66.1149 80.5508 60.9561 84.3996 57.8126 87.2953V37.6072C58.8768 35.7425 64.1856 27.3437 73.4376 27.3437C80.6332 27.3437 89.2739 29.7501 95.9342 32.4743L94.2168 46.9007C94.0787 48.0599 94.9828 49.0849 96.1586 49.0849C97.134 49.0849 97.9773 48.3552 98.0955 47.3626L99.9861 31.4812C100.087 30.6367 99.6291 29.824 98.8549 29.4722C98.7205 29.4111 95.8279 28.104 91.5311 26.7148L92.9569 13.8879C93.0182 13.3357 92.8416 12.7836 92.4711 12.3697C92.1004 11.9552 91.5713 11.7187 91.0156 11.7187C89.4699 11.7187 87.9196 11.8094 86.383 11.989L87.1043 2.09531C87.1438 1.5541 86.9563 1.0207 86.5868 0.623241C86.2172 0.225976 85.6991 0 85.1563 0C70.6999 0 58.3225 10.4556 55.9388 24.7494C53.8856 37.1663 53.9063 36.7782 53.9063 37.1093C53.9063 39.2632 52.154 41.0155 50.0001 41.0155C47.8462 41.0155 46.0939 39.2632 46.0939 37.1093C46.0939 36.6988 45.9601 36.2802 44.0614 24.7492C41.6835 10.4898 29.3351 0 14.8439 0C14.3013 0 13.783 0.225781 13.4135 0.623046C13.0439 1.02051 12.8564 1.5539 12.8959 2.09511L13.6172 11.989C12.0805 11.8094 10.5301 11.7187 8.98456 11.7187C8.4289 11.7187 7.8998 11.9552 7.52909 12.3693C7.15859 12.7832 6.98202 13.3353 7.04335 13.8875L8.46913 26.7144C4.17226 28.1039 1.27969 29.4107 1.14532 29.4718C0.370904 29.8236 -0.086712 30.6363 0.014069 31.4808L5.87343 80.6996ZM88.826 15.692L87.7268 25.5818C82.4858 24.1584 77.6879 23.4375 73.4376 23.4375C71.2909 23.4375 69.328 23.7847 67.5456 24.3642C73.4776 19.2586 80.9022 16.1763 88.826 15.692ZM59.7919 25.3916C61.7514 13.6412 71.3641 4.93183 83.0495 3.99081L82.4176 12.6574C73.5985 14.6084 65.4018 19.5564 59.4942 27.1779L59.7919 25.3916ZM50.0001 44.9218C51.4226 44.9218 52.7563 44.5378 53.9063 43.8708V92.1873C53.9063 94.3412 52.154 96.0936 50.0001 96.0936C47.8462 96.0936 46.0939 94.3412 46.0939 92.1873V43.8708C47.2441 44.5378 48.5776 44.9218 50.0001 44.9218ZM40.2083 25.3914L40.506 27.1777C34.5929 19.5488 26.3882 14.6052 17.5826 12.6572L16.9508 3.99062C28.6363 4.93183 38.249 13.6412 40.2083 25.3914ZM32.455 24.3644C30.6724 23.7849 28.7093 23.4375 26.5627 23.4375C22.3123 23.4375 17.5146 24.1584 12.2736 25.5818L11.1744 15.692C19.0668 16.1744 26.499 19.238 32.455 24.3644ZM26.5627 27.3437C35.8132 27.3437 41.1222 35.7407 42.1876 37.607V87.2953C39.0443 84.3998 33.8853 80.551 27.1044 78.592C22.2125 77.1795 14.5572 77.6563 9.51757 78.2672L4.06601 32.4738C10.7328 29.7462 19.3734 27.3437 26.5627 27.3437Z" fill="#3B575E"/>
<path d="M95.1172 57.8127C96.1959 57.8127 97.0703 56.9382 97.0703 55.8596C97.0703 54.7809 96.1959 53.9064 95.1172 53.9064C94.0385 53.9064 93.1641 54.7809 93.1641 55.8596C93.1641 56.9382 94.0385 57.8127 95.1172 57.8127Z" fill="#3B575E"/>
</g>
<defs>
<clipPath id="clip0">
<rect width="100" height="100" fill="white"/>
</clipPath>
</defs>
</svg>
