<svg width="717" height="493" viewBox="0 0 717 493" fill="none" xmlns="http://www.w3.org/2000/svg">
<path opacity="0.4" fill-rule="evenodd" clip-rule="evenodd" d="M326.186 0.194846C323.599 0.374515 329.382 0.629382 339.459 0.78035C349.281 0.927873 357.498 1.23096 357.721 1.45425C357.943 1.67755 357.972 2.25846 357.786 2.7458C357.488 3.5236 354.646 3.63152 334.432 3.63152C312.867 3.63152 286.173 4.63606 274.049 5.90407C271.214 6.20084 266.315 6.60094 263.164 6.79323C260.013 6.9861 256.104 7.5165 254.477 7.97228C252.849 8.42805 248.467 9.0566 244.737 9.37002C241.007 9.68286 237.182 10.1949 236.236 10.5077C234.985 10.9222 235.921 10.9761 239.674 10.7069C249.089 10.0307 315.306 10.2018 328.764 10.9371C360.478 12.6695 366.892 13.1867 370.731 14.3192C374.542 15.4443 368.749 15.6854 338.074 15.6785C304.408 15.6711 293.39 16.0666 265.169 18.2949C250.462 19.4562 247.981 19.746 247.981 20.3029C247.981 20.5594 249.464 20.9331 251.276 21.1335C253.087 21.3332 254.957 21.5491 255.429 21.6128C256.989 21.8234 256.324 23.3044 254.164 24.4272C252.59 25.2458 248.284 25.9593 237.549 27.1802C220.301 29.1416 217.655 29.509 217.364 29.982C217.032 30.5199 224.87 30.1112 234.226 29.102C242.52 28.2083 254.503 28.4264 255.155 29.4832C255.491 30.0262 251.056 30.9837 245.69 31.5273C241.785 31.9222 237.408 33.4032 238.703 33.89C239.114 34.0449 243.681 33.7269 248.852 33.1839C257.857 32.2379 262.17 32.32 264.019 33.4738C264.717 33.9095 264.738 34.1425 264.134 34.7481C263.387 35.4967 260.577 36.046 248.554 37.7933C244.931 38.3203 240.161 39.2657 237.955 39.8948C230.19 42.1094 221.08 44.0083 203.58 47.0598C200.744 47.5546 195.458 48.7181 191.835 49.6463C188.211 50.5745 183.171 51.8471 180.634 52.4751C175.863 53.6558 172.355 55.3641 172.355 56.5082C172.355 56.968 173.001 57.0259 174.504 56.7016C175.686 56.4462 178.972 56.1919 181.808 56.1368C184.654 56.0811 188.36 55.6121 190.077 55.0903C192.197 54.4463 195.306 54.1455 199.839 54.1455C203.497 54.1455 209.422 53.7374 213.005 53.238C219.71 52.304 224.217 52.3769 228.215 53.4836C229.476 53.8327 232.892 54.1243 235.807 54.1317C239.826 54.142 241.106 54.3298 241.106 54.9084C241.106 55.9393 236.386 58.0069 232.502 58.6774C230.763 58.9776 227.927 59.7967 226.2 60.4971C224.472 61.1974 221.383 62.0969 219.335 62.4964C215.204 63.3017 206.213 65.1684 200.315 66.4451C196.64 67.2401 193.788 68.3485 194.243 68.8043C194.361 68.9226 195.584 68.6304 196.96 68.1551C199.481 67.2849 204.505 66.5323 221.349 64.5014C226.396 63.893 232.251 63.1186 234.359 62.7811C238.095 62.1835 244.77 61.7886 276.055 60.3139C292.592 59.535 343.863 59.3301 345.587 60.0361C346.458 60.3932 346.524 60.6302 345.946 61.3277C345.338 62.0613 341.47 62.183 318.525 62.1898C290.428 62.1985 279.173 62.6594 248.841 65.0427C233.623 66.2384 215.322 68.4565 208.736 69.903L205.298 70.6578L208.243 70.725C209.862 70.7617 213.214 70.4276 215.691 69.9822C218.168 69.5368 223.546 69.0259 227.642 68.8474C231.739 68.6688 239.216 68.0024 244.257 67.3664C254.726 66.0455 269.794 65.0973 287.227 64.6627C296.924 64.4211 299.925 64.5341 302.696 65.2454C305.046 65.8487 310.392 66.2384 319.597 66.4766C334.588 66.8653 336.965 67.092 336.632 68.0983C336.473 68.5804 333.028 68.8967 324.993 69.1671C318.717 69.3778 305.745 69.8117 296.168 70.1314C281.748 70.6119 278.601 70.865 277.866 71.6009C277.065 72.4046 277.104 72.625 278.277 73.8758L279.576 75.2603L278.26 76.1834C277.383 76.7993 275.701 77.1093 273.206 77.1156C269.476 77.1253 257.989 78.9427 257.301 79.6321C256.516 80.4191 258.286 81.1768 262.743 81.962C265.308 82.4138 268.285 82.6405 269.36 82.4655C272.647 81.931 274.987 83.9843 272.987 85.6478C272.56 86.0026 269.015 87.0117 265.109 87.8905C258.408 89.3974 258.008 89.5661 258.008 90.8823C258.008 91.9919 258.652 92.6107 261.159 93.9109C264.224 95.5004 264.493 95.5371 271.021 95.2524C279.784 94.8701 279.835 94.8867 310.144 107.97C318.967 111.779 328.718 116.08 331.813 117.527C337.246 120.068 339.819 120.703 340.461 119.661C341.008 118.775 338.866 117.501 335.639 116.794C332.24 116.049 297.136 99.8744 296.037 98.5467C294.687 96.9176 296.252 97.0697 302.833 99.2091C316.13 103.532 327.63 108.115 342.825 115.147C351.319 119.078 359.945 123.034 361.994 123.937C364.042 124.84 378.222 131.817 393.505 139.441C424.886 155.098 428.147 156.664 430.5 157.216L432.177 157.609L431.031 156.443C429.821 155.211 381.913 131.073 370.455 125.921C366.758 124.259 362.375 122.031 360.715 120.969C358.209 119.366 342.876 111.548 342.238 111.548C342.131 111.548 337.831 109.524 332.682 107.05C327.534 104.576 322.331 102.082 321.12 101.506C318.806 100.407 317.941 99.2011 318.828 98.3125C319.783 97.3556 327.6 99.4559 335.225 102.718C339.296 104.46 342.748 105.765 342.895 105.618C343.388 105.123 341.695 104.019 335.353 100.698C330.655 98.2384 329.05 97.1168 329.05 96.2931C329.05 95.2736 329.428 95.203 333.92 95.3838C338.078 95.5515 339.586 95.9194 344.233 97.8998C347.227 99.1764 350.578 100.597 351.681 101.058L353.686 101.896L351.447 99.5719C349.499 97.5513 349.307 97.1266 349.981 96.3138C350.971 95.1181 354.448 95.4292 359.988 97.2104C362.593 98.0473 366.409 98.6569 370.874 98.9485C378.779 99.4646 384.086 100.173 389.781 101.473C391.986 101.976 396.369 102.616 399.52 102.893C403.974 103.286 406.122 103.794 409.17 105.177C413.846 107.298 414.522 107.36 414.462 105.664C414.419 104.45 414.64 104.374 418.14 104.396C427.48 104.456 480.234 111.915 498.637 115.778C500.842 116.241 505.354 117.18 508.663 117.865C511.971 118.551 515.733 119.331 517.023 119.6C518.312 119.869 521.664 120.853 524.471 121.787C527.278 122.72 534.151 124.608 539.743 125.982C546.163 127.56 549.912 128.746 549.912 129.199C549.914 130.252 546.051 130.098 541.183 128.85C538.895 128.263 535.347 127.355 533.299 126.832C531.25 126.309 526.996 125.103 523.845 124.154C520.694 123.205 513.346 121.675 507.517 120.755C501.687 119.835 493.824 118.443 490.043 117.664C478.751 115.335 474.263 114.507 469.036 113.79C464.294 113.14 464.003 113.164 462.514 114.337C461.656 115.013 460.41 115.576 459.743 115.589C457.416 115.633 461.112 117.096 465.407 117.83C467.613 118.208 471.351 119.133 473.714 119.887C476.078 120.64 480.203 121.652 482.881 122.135C487.747 123.013 491.223 123.723 500.928 125.821C503.764 126.434 512.014 128.14 519.262 129.612C526.509 131.084 536.202 133.176 540.8 134.26C545.399 135.344 549.683 136.231 550.319 136.231C550.955 136.231 557.634 137.779 565.161 139.671C572.688 141.563 579.138 143.113 579.495 143.116C579.853 143.117 580.28 142.602 580.445 141.971C580.647 141.195 581.226 140.823 582.23 140.823C584.877 140.823 583.816 139.946 579.083 138.221C574.191 136.44 573.026 135.657 575.266 135.657C576.567 135.657 579.683 136.365 591.843 139.426C594.894 140.194 598.632 140.829 600.15 140.837C604.288 140.857 607.149 141.702 608.955 143.435C610.453 144.873 610.646 144.92 611.51 144.055C612.612 142.951 614.046 142.866 616.059 143.785C617.811 144.585 617.936 146.145 616.373 147.711C615.478 148.608 614.463 148.859 611.742 148.859C609.494 148.859 608.33 149.08 608.463 149.481C608.728 150.278 612.629 151.885 618.092 153.447C629.708 156.768 632.296 158.248 629.687 160.079C627.973 161.282 628.065 161.75 630.266 163.035C634.077 165.26 645.153 168.434 646.032 167.553C646.469 167.114 644.485 159.171 643.68 158.14C643.351 157.72 641.585 156.618 639.754 155.692C634.65 153.111 635.272 151.792 642.274 150.345C648.122 149.137 651.606 149.195 655.997 150.573C659.381 151.635 659.678 151.647 660.345 150.75C660.739 150.221 661.061 149.615 661.061 149.404C661.061 149.193 658.354 147.017 655.045 144.567C651.737 142.118 649.03 139.821 649.03 139.461C649.03 138.696 652.9 137.379 655.148 137.379H656.702L654.871 135.486C653.864 134.445 653.04 133.367 653.04 133.091C653.04 132.815 654.394 131.233 656.048 129.577C657.702 127.921 659.574 125.946 660.208 125.189C660.842 124.432 661.852 123.537 662.452 123.2C663.157 122.805 663.665 121.7 663.884 120.082C664.262 117.299 664.141 117.339 669.942 118.093L672.806 118.465L669.62 116.989C665.453 115.06 662.943 110.962 665.358 110.033C665.957 109.803 666.218 108.867 666.218 106.948C666.218 105.116 666.799 102.894 667.952 100.319L669.687 96.4446L668.431 95.1043C667.74 94.3672 665.541 92.6986 663.545 91.3955C660.202 89.2131 658.893 87.4359 660.631 87.4405C661.757 87.444 670.676 90.0144 675.098 91.6102C680.169 93.4402 685.377 94.2266 685.004 93.1055C684.705 92.206 682.397 91.3439 676.912 90.0827C674.646 89.5621 672.297 88.592 671.333 87.7798C670.418 87.0077 668.183 85.9526 666.368 85.4355C653.775 81.8461 652.971 81.5246 650.088 78.9278C646.766 75.9354 647.051 75.0118 650.972 76.0628C653.445 76.7252 653.874 76.6787 656.077 75.5095C659.026 73.9447 659.984 73.9298 664.591 75.3769C671.594 77.5765 671.18 76.1638 663.926 73.1106C658.275 70.7319 657.051 69.8794 657.051 68.3216C657.051 67.4508 656.534 66.8084 655.475 66.3641C652.08 64.9394 646.387 61.4913 645.162 60.1188C644.453 59.3238 643.873 58.2113 643.873 57.6465C643.873 56.1735 642.386 55.0461 638.144 53.3057C636.096 52.4653 633.647 51.4373 632.701 51.0211C628.895 49.3467 624.877 48.3651 617.232 47.2429C607.345 45.7923 603.37 44.8228 596.034 42.0715C592.883 40.8902 587.211 38.9706 583.43 37.8065C579.648 36.6418 575.523 35.3457 574.263 34.9261C567.978 32.832 540.867 26.1923 523.845 22.5777C517.612 21.254 515.415 20.7902 499.429 17.4213C493.563 16.1848 487.7 14.6183 486.401 13.9398C483.885 12.6259 478.485 11.7235 472.855 11.6764C470.964 11.6609 467.677 11.2781 465.549 10.8263C463.421 10.3746 458.523 9.71788 454.663 9.36658C450.804 9.01585 446.357 8.36548 444.781 7.92234C441.375 6.96372 432.725 5.59755 426.734 5.07174C424.371 4.86395 420.89 4.46902 419 4.19291C417.109 3.91738 411.437 3.41626 406.395 3.07988C401.354 2.74351 395.682 2.22057 393.791 1.91806C386.872 0.811347 373.244 0.194272 352.254 0.0381382C340.437 -0.0502613 328.707 0.0203436 326.186 0.194846ZM146.287 21.2506C126.941 25.7274 103.793 33.6431 101.321 36.6269C100.202 37.9776 100.948 38.2336 102.514 37.0368C103.271 36.4576 105.695 35.3882 107.901 34.6603C110.107 33.9319 112.607 32.9813 113.458 32.5473C114.31 32.1134 116.501 31.7557 118.328 31.7523C120.156 31.7489 122.924 31.3597 124.479 30.8867C126.035 30.4137 127.762 30.172 128.318 30.3488C129.792 30.8172 133.904 29.5681 135.935 28.0355C136.902 27.3054 139.441 25.9202 141.578 24.9565C143.713 23.9932 146.133 22.6753 146.954 22.0284C148.456 20.8447 148.387 20.7644 146.287 21.2506ZM212.46 30.6106C211.83 31.0187 212.211 31.1588 213.892 31.1352C215.693 31.1105 215.938 30.998 215.038 30.6106C213.531 29.9614 213.463 29.9614 212.46 30.6106ZM591.737 35.6694C591.737 36.5454 594.445 37.6745 600.264 39.2232C603.609 40.1141 610.204 41.9068 614.918 43.2069C627.977 46.8095 639.581 49.3415 639.044 48.4713C638.411 47.4444 630.846 45.3337 607.779 39.7484C602.265 38.4133 596.399 36.8582 594.745 36.2928C593.091 35.7274 591.737 35.4467 591.737 35.6694ZM624.646 38.6601C627.329 39.7094 630.234 40.6221 639.147 43.2167C644.886 44.8877 646.165 45.1379 646.165 44.5897C646.165 43.1191 628.355 37.4684 623.902 37.5258L621.816 37.5528L624.646 38.6601ZM92.244 40.0957C89.9345 41.1933 87.8622 42.091 87.6388 42.091C87.4153 42.091 86.3393 42.8556 85.2485 43.7896C82.7895 45.8956 84.0346 46.065 87.4773 44.0932C90.3517 42.4469 91.3176 42.3195 91.78 43.5261C92.2463 44.7442 93.1486 44.5938 93.5818 43.2264C93.784 42.5875 95.2352 41.3299 96.8061 40.4309C98.9529 39.2025 99.4291 38.7066 98.7221 38.4345C97.2113 37.8536 96.667 37.9937 92.244 40.0957ZM496.631 47.2572C496.631 47.5729 496.374 47.8312 496.058 47.8312C495.743 47.8312 495.485 47.5729 495.485 47.2572C495.485 46.9415 495.743 46.6832 496.058 46.6832C496.374 46.6832 496.631 46.9415 496.631 47.2572ZM78.9578 49.1934C77.8607 49.9431 76.1682 51.6864 75.1971 53.0681C72.643 56.7016 72.4729 57.0535 73.4572 56.6752C74.2037 56.3882 81.6431 47.8312 81.1458 47.8312C81.0398 47.8312 80.055 48.4443 78.9578 49.1934ZM536.325 54.7195C536.79 54.7195 536.793 54.8917 536.336 55.3504C535.582 56.1058 533.129 55.4594 533.635 54.6392C533.828 54.3246 534.369 54.2138 534.836 54.3935C535.302 54.5726 535.972 54.7195 536.325 54.7195ZM562.542 60.6836C565.207 61.4379 568.097 62.218 568.963 62.4166C570.597 62.7908 571.161 63.9039 569.717 63.9039C566.549 63.9039 555.07 60.7186 555.07 59.8398C555.07 58.9684 557.424 59.2342 562.542 60.6836ZM52.327 61.6078C52.1322 61.9235 52.2308 62.1818 52.5459 62.1818C52.861 62.1818 53.2781 61.9235 53.4729 61.6078C53.6677 61.2921 53.5691 61.0338 53.254 61.0338C52.9389 61.0338 52.5218 61.2921 52.327 61.6078ZM581.269 66.5467C581.079 66.7373 580.584 66.7579 580.171 66.592C579.714 66.4089 579.85 66.2729 580.517 66.2453C581.121 66.2206 581.459 66.3561 581.269 66.5467ZM46.3668 70.6486C43.3486 74.079 43.1276 74.564 43.9715 75.8998C44.3685 76.5283 44.8944 76.2293 46.3978 74.5181C49.6457 70.8214 50.8283 68.9897 50.5069 68.1516C50.0016 66.8325 49.4113 67.1884 46.3668 70.6486ZM259.87 72.3552C260.893 72.4826 262.57 72.4826 263.594 72.3552C264.617 72.2284 263.78 72.1239 261.732 72.1239C259.683 72.1239 258.846 72.2284 259.87 72.3552ZM18.5244 83.0056C14.5947 85.1209 8.03923 91.4013 4.89443 96.0646C3.47358 98.1713 2.27625 101.029 1.32978 104.573C-0.401034 111.051 -0.410217 111.54 1.11549 116.066C2.32379 119.651 2.33068 119.659 4.3852 119.478C6.09424 119.328 6.56512 119.538 7.15638 120.714C7.58149 121.559 7.73614 123.101 7.53963 124.538C7.22509 126.837 7.33569 127.064 10.0027 129.586C13.3646 132.765 21.0905 138.157 21.5809 137.665C22.3108 136.933 20.1412 134.238 17.6639 132.8C13.9427 130.639 13.0478 128.528 13.478 122.932L13.824 118.436H11.7953C9.50071 118.436 9.28882 118.109 8.72678 113.707C8.5148 112.046 7.73165 109.631 6.98742 108.34C5.30302 105.421 5.30295 104.841 6.98506 102.353C7.72814 101.254 8.53316 99.7085 8.77378 98.9193C9.01441 98.13 9.99638 96.2575 10.9566 94.7576C12.4554 92.4156 12.9665 92.031 14.5787 92.031C17.3213 92.031 19.0967 90.0822 20.7226 85.2862C21.4984 82.997 22.0949 81.1314 22.0479 81.14C22.0003 81.1481 20.415 81.9879 18.5244 83.0056ZM714.343 82.1807C714.343 84.1204 715.045 86.8648 715.541 86.8648C716.377 86.8648 717.286 84.5715 716.914 83.3982C716.718 82.7783 716.059 82.0045 715.45 81.6779C714.536 81.1871 714.343 81.2749 714.343 82.1807ZM202.544 86.4962C199.453 87.1724 196.95 87.9841 196.981 88.2998C197.06 89.1029 198.094 88.9422 205.585 86.9589C213.23 84.9349 211.136 84.6158 202.544 86.4962ZM55.4473 89.2401C50.5035 91.9104 46.2586 95.7374 46.698 97.1277C46.918 97.8234 46.8573 97.8705 46.458 97.3137C46.0203 96.7035 45.8174 96.7035 45.335 97.3137C44.2034 98.7448 44.1869 99.7964 45.2606 101.941C46.0913 103.6 46.2013 104.367 45.7338 105.242C44.9443 106.72 43.0858 106.704 42.2883 105.211C41.7899 104.277 41.9112 103.637 42.8881 102.053C43.9033 100.408 43.9612 100.067 43.2267 100.067C41.807 100.067 38.2886 103.498 38.3087 104.863C38.3184 105.54 38.7052 106.596 39.1681 107.209C39.6304 107.822 40.0091 108.94 40.0091 109.694C40.0091 110.913 40.1965 111.024 41.6965 110.694C43.2101 110.361 43.5355 110.563 44.8595 112.665C45.6714 113.953 46.4907 116.231 46.6798 117.726C46.8717 119.237 47.7735 121.641 48.7108 123.137C50.916 126.658 50.8947 128.55 48.5984 133.083C47.1609 135.92 46.3405 136.907 45.217 137.152C42.5535 137.731 42.3008 137.902 42.3008 139.12C42.3008 141.16 43.2341 142.249 47.358 145.021C51.632 147.894 54.9052 151.213 54.9052 152.674C54.9052 154.982 58.6281 160.209 62.921 163.927C65.3812 166.058 67.5486 167.802 67.7382 167.802C67.9273 167.802 68.0825 167.277 68.0825 166.636C68.0825 165.095 69.2341 164.721 71.7973 165.43C77.3158 166.956 76.7583 162.605 70.8818 158.282C69.3423 157.15 68.0825 155.858 68.0825 155.412C68.0825 154.11 70.3456 154.473 72.2529 156.081C75.0746 158.46 79.5829 160.396 82.9786 160.688C84.7117 160.836 86.9679 161.061 87.9917 161.187C89.0155 161.313 89.8537 161.205 89.8537 160.947C89.8537 160.464 88.9485 160.092 83.5515 158.359C81.8184 157.802 79.9495 156.947 79.3978 156.458C78.2118 155.407 77.9838 151.168 79.1113 151.133C79.5055 151.121 78.5619 149.993 77.015 148.628C74.9479 146.803 74.3046 145.878 74.587 145.141C74.8437 144.47 75.361 144.239 76.1437 144.444C78.3844 145.031 77.0562 142.978 74.6712 142.167C71.3682 141.044 70.3742 139.579 70.3742 135.836V132.699L68.3998 132.869C67.3136 132.963 66.2393 132.853 66.0125 132.626C65.7856 132.399 65.9867 132.213 66.4594 132.213C67.0214 132.213 67.3188 131.649 67.3188 130.582C67.3188 129.686 67.9066 127.735 68.6257 126.247C70.5014 122.365 69.9892 120.556 66.0011 116.981L62.7772 114.091L64.0089 111.671C65.3089 109.119 65.7587 108.887 67.5474 109.846C68.8359 110.537 68.8416 110.52 68.0636 108.333C67.7135 107.348 66.7201 106.317 65.6287 105.808C64.1098 105.098 63.7351 104.545 63.4991 102.665C63.2562 100.73 62.866 100.188 60.9209 99.0874C58.2161 97.5565 56.0724 97.4337 53.6792 98.6736C51.9507 99.5696 50.3218 99.4468 50.3218 98.421C50.3218 98.1271 52.66 95.5618 55.5172 92.7209C58.375 89.8795 60.4877 87.4158 60.2127 87.2453C59.9377 87.0749 57.7934 87.9726 55.4473 89.2401ZM187.136 90.6453C185.655 91.1016 184.286 91.7296 184.094 92.0402C183.61 92.826 184.317 92.7502 187.579 91.6676C192.719 89.9611 192.323 89.0461 187.136 90.6453ZM178.91 93.4477C177.855 94.2473 177.89 94.2915 179.59 94.3087C180.575 94.319 181.702 93.9396 182.095 93.466C182.696 92.741 182.588 92.605 181.415 92.605C180.649 92.605 179.522 92.9844 178.91 93.4477ZM30.2694 94.6141C30.2694 95.4034 30.5272 96.0491 30.8423 96.0491C31.1574 96.0491 31.4152 95.4034 31.4152 94.6141C31.4152 93.8248 31.1574 93.179 30.8423 93.179C30.5272 93.179 30.2694 93.8248 30.2694 94.6141ZM89.5998 95.6031C88.1606 97.6616 88.556 97.9302 90.9995 96.5543C93.6155 95.0813 93.9174 94.3271 91.8915 94.3271C91.094 94.3271 90.1074 94.8764 89.5998 95.6031ZM253.281 96.0669C252.572 96.3528 251.992 96.6788 251.992 96.7925C251.992 97.2155 255.456 96.4705 255.757 95.9831C256.15 95.3465 254.971 95.3861 253.281 96.0669ZM226.28 97.0675C225.109 99.2585 225.587 99.887 230.06 102.045C232.493 103.218 236.683 105.621 239.37 107.386C243.88 110.345 249.754 113.476 256.871 116.714C271.728 123.472 298.761 136.576 300.701 137.96C302.757 139.427 303.002 140.858 301.12 140.406C299.85 140.101 283.915 133.444 277.773 130.654C276.04 129.867 273.591 128.821 272.331 128.33C271.07 127.84 269.711 127.185 269.309 126.874C267.912 125.792 267.848 127.061 269.225 128.531C271.66 131.131 278.694 135.111 289.119 139.789C294.696 142.291 301.708 145.509 304.701 146.94C311.282 150.086 317.921 152.598 321.04 153.121C322.307 153.334 324.37 154.136 325.624 154.905C329.139 157.059 338.913 161.745 346.599 164.963C350.419 166.562 354.19 168.294 354.979 168.812C356.35 169.712 356.399 169.704 356.066 168.635C355.874 168.019 355.939 167.162 356.209 166.73C356.848 165.712 358.568 166.274 368.403 170.721C376.086 174.194 380.444 176.437 404.276 189.185C411.934 193.282 419.282 196.965 420.605 197.371C421.928 197.777 425.975 199.813 429.599 201.895C433.223 203.977 436.509 205.683 436.902 205.685C437.295 205.686 438.584 206.547 439.767 207.597C440.949 208.648 447.331 212.685 453.948 216.569C460.566 220.452 466.941 224.243 468.116 224.991C469.291 225.74 470.356 226.352 470.483 226.352C470.61 226.352 473.644 228.03 477.227 230.081C484.05 233.986 486.319 234.64 486.319 232.704C486.319 231.506 485.6 230.947 475.433 224.231C465.865 217.911 456.418 212.423 442.49 205.094C434.567 200.926 431.134 198.996 416.873 190.696C412.867 188.365 405.004 183.811 399.399 180.576C387.279 173.581 384.924 171.82 387.689 171.82C388.272 171.82 396.553 175.695 406.09 180.43C415.628 185.166 424.072 189.041 424.857 189.041C425.641 189.041 427.048 189.687 427.984 190.476C429.606 191.843 432.464 192.451 432.464 191.429C432.464 190.8 429.848 189.615 428.459 189.615C427.861 189.615 427.035 189.139 426.624 188.559C424.26 185.224 397.236 171.457 388.662 169.22C386.976 168.78 380.084 165.577 373.347 162.102C366.61 158.628 360.074 155.418 358.824 154.969C357.574 154.52 354.23 153.063 351.395 151.731C346.561 149.461 342.228 147.467 338.217 145.668C335.85 144.607 325.34 140.488 323.709 139.983C322.776 139.694 322.171 139.855 321.686 140.518C321.13 141.28 320.692 141.349 319.437 140.871C317.333 140.07 317.471 139.213 319.74 138.992L321.602 138.811L319.769 137.808C317.353 136.486 316.567 136.527 317.019 137.953C317.601 139.79 315.801 139.396 309.487 136.302C306.346 134.764 300.658 132.19 296.848 130.585C293.038 128.979 286.607 126.078 282.558 124.138C274.554 120.303 256.933 112.002 253.711 110.549C242.549 105.515 238.946 103.538 237.029 101.398C234.881 99.0013 232.359 97.7712 229.59 97.7712C228.691 97.7712 227.752 97.3522 227.453 96.8183C226.976 95.9625 226.856 95.9877 226.28 97.0675ZM208.314 97.5824C211.055 99.8027 238.676 113.368 240.035 113.162C241.015 113.013 237.439 110.965 227.177 105.794C219.357 101.855 212.396 98.3286 211.708 97.9572C211.018 97.5858 209.681 97.1134 208.736 96.9073L207.017 96.5324L208.314 97.5824ZM236.54 97.7488C236.076 98.0427 235.872 98.4577 236.085 98.6718C236.609 99.1971 238.242 98.5289 238.242 97.789C238.242 97.06 237.649 97.0462 236.54 97.7488ZM679.588 98.1259C681.261 99.034 682.09 98.8905 681.424 97.8097C681.216 97.4727 680.352 97.2075 679.504 97.2201L677.962 97.2431L679.588 98.1259ZM83.638 101.459C79.1784 105.773 78.2209 108.04 80.0021 110.07C81.6688 111.967 82.644 113.811 84.6625 118.877L86.5531 123.623L85.3963 126.301C84.6578 128.01 84.3949 129.408 84.6687 130.166C85.0669 131.264 87.8536 133.551 89.4515 134.09C89.9718 134.265 89.9534 134.549 89.3764 135.249C88.9256 135.796 88.7732 136.68 89.0035 137.407C89.3782 138.591 89.6005 138.623 94.6257 138.225C98.4391 137.922 100.044 137.557 100.543 136.877C101.17 136.024 101.557 136.061 105.027 137.298C107.116 138.043 108.931 138.547 109.06 138.418C109.36 138.118 101.512 132.213 100.813 132.213C100.527 132.213 98.7696 131.089 96.9088 129.717C94.2573 127.761 93.372 126.711 92.8197 124.863C92.4318 123.567 91.4744 121.744 90.6918 120.812C88.3279 117.996 84.6974 111.372 84.6974 109.872C84.6974 109.098 85.1688 107.931 85.7446 107.279C86.7959 106.091 88.5618 98.5811 87.9373 97.956C87.7546 97.7723 85.8197 99.3486 83.638 101.459ZM9.64402 105.473C9.64402 105.972 10.0525 106.382 10.551 106.382C11.05 106.382 11.3566 106.075 11.2317 105.7C10.8776 104.635 9.64402 104.459 9.64402 105.473ZM68.6639 112.142C68.6691 112.92 68.899 113.914 69.1745 114.35C69.5653 114.969 69.7657 114.86 70.0837 113.856C70.3559 112.997 70.1858 112.261 69.5739 111.648C68.7311 110.804 68.6559 110.845 68.6639 112.142ZM264.737 111.683C265.276 113.304 281.449 121.698 294.734 127.251C296.658 128.055 301.752 130.404 306.054 132.471C310.356 134.539 314.276 136.231 314.765 136.231C316.42 136.231 314.926 135.029 311.094 133.278C294.298 125.602 290.311 123.668 287.814 121.984C284.808 119.957 277.781 116.514 269.466 112.993C264.764 111.001 264.484 110.924 264.737 111.683ZM5.06061 114.131C5.06061 114.604 4.81839 114.992 4.52162 114.992C3.79916 114.992 3.28178 114.095 3.73954 113.637C4.38466 112.99 5.06061 113.243 5.06061 114.131ZM33.0709 118.246C32.4223 119.885 32.7175 121.071 35.5208 128.101C36.233 129.887 36.1933 130.091 34.9323 131.114C34.1887 131.718 33.0825 132.213 32.4746 132.213C30.9093 132.213 27.454 130.313 25.1892 128.208C24.1287 127.221 23.1708 126.505 23.0608 126.615C22.9514 126.725 23.5038 128.409 24.2892 130.357C25.7731 134.038 26.244 139.584 25.4224 143.697C25.1348 145.137 25.3555 146.562 26.1971 148.702C26.8445 150.348 27.6317 153.296 27.9462 155.254C28.2613 157.213 28.7524 159.049 29.0377 159.335C29.8318 160.131 33.9304 160.919 34.469 160.38C34.7314 160.117 34.3996 158.829 33.7315 157.518C33.0641 156.207 32.659 154.905 32.8314 154.625C33.1562 154.099 40.2658 157.536 41.6511 158.889C42.5804 159.796 43.4031 163.232 43.9261 168.386C44.2143 171.221 44.7484 172.795 46.1321 174.888C47.137 176.406 48.1234 178.401 48.3245 179.32C48.7015 181.039 51.019 183.301 52.4043 183.301C53.6379 183.301 53.3503 182.384 50.8947 178.489C48.3343 174.427 48.2254 173.997 49.4938 172.942C50.2524 172.311 50.7545 172.579 52.8674 174.737C56.6207 178.572 57.3223 179.083 59.3717 179.476C60.4104 179.676 62.0862 180.446 63.0957 181.188C64.1052 181.93 66.197 183.005 67.7439 183.576C69.5486 184.241 71.531 185.636 73.2744 187.468C75.3828 189.683 76.5499 190.426 78.4829 190.786C81.4805 191.345 82.6544 190.587 80.8038 189.288C79.5606 188.416 77.7386 185.496 77.8841 184.609C78.1081 183.249 77.5518 182.729 74.9525 181.864C73.3741 181.339 70.7591 179.996 69.1412 178.882C67.5238 177.767 64.8833 176.326 63.274 175.679C59.1913 174.039 58.5703 173.396 59.8388 172.125C60.6156 171.347 61.4044 171.196 63.3168 171.458C64.6775 171.645 65.7748 171.609 65.7548 171.379C65.6889 170.615 58.5891 164.817 56.7918 164.06C54.4296 163.065 50.6478 159.581 47.9287 155.896C46.022 153.311 45.5493 152.966 44.5776 153.456C43.9554 153.769 42.9344 154.284 42.3087 154.599C40.4817 155.521 39.8184 155.293 38.1225 153.164C37.2425 152.059 36.1253 151.155 35.64 151.155C33.8593 151.155 35.2946 149.712 37.3514 149.433C40 149.075 39.8608 147.948 37.1909 148.136C35.8251 148.232 34.654 147.832 33.3237 146.815C30.9781 145.022 30.9374 144.263 33.1008 142.66C34.6265 141.53 34.8705 141.497 35.6789 142.307C36.1699 142.799 36.5716 143.401 36.5716 143.647C36.5716 144.237 41.2638 146.072 41.686 145.647C41.8665 145.466 41.2409 144.679 40.2956 143.897C36.7108 140.935 35.9986 140.09 35.9986 138.794C35.9986 137.207 37.0098 136.089 39.313 135.134C42.923 133.636 42.7374 129.791 38.8816 126.185C36.5406 123.997 34.7668 120.563 34.9765 118.625C35.2023 116.539 33.8523 116.27 33.0709 118.246ZM311.863 117.634C313.796 119.221 323.477 123.655 325.755 123.997C327.695 124.289 327.821 124.232 327.045 123.419C326.572 122.924 324.123 121.744 321.602 120.798C319.081 119.851 315.601 118.54 313.868 117.886C311.37 116.941 310.954 116.888 311.863 117.634ZM79.3869 118.482C79.5898 119.258 79.8493 119.519 79.9926 119.089C80.1301 118.674 79.9707 118.063 79.6373 117.729C79.2121 117.303 79.1377 117.527 79.3869 118.482ZM341.698 120.228C342.11 120.896 345.391 122.498 366.004 132.09C372.779 135.243 380.209 138.744 382.514 139.869C384.82 140.995 386.607 141.606 386.486 141.226C386.138 140.143 344.745 119.585 342.91 119.585C341.867 119.584 341.44 119.811 341.698 120.228ZM74.3847 120.643C74.3847 121.199 76.2869 123.028 76.865 123.028C77.7221 123.028 77.1743 121.306 76.1413 120.752C74.7966 120.031 74.3847 120.005 74.3847 120.643ZM58.5822 125.673C59.4175 125.994 59.9041 127.62 59.1645 127.62C58.2644 127.62 56.6349 126.345 56.9282 125.87C57.3247 125.227 57.3997 125.218 58.5822 125.673ZM702.502 127.952C702.311 128.45 702.577 129.28 703.093 129.797C703.961 130.667 704.101 130.666 704.984 129.781C705.772 128.992 705.809 128.671 705.201 127.936C704.25 126.789 702.944 126.797 702.502 127.952ZM72.093 129.898C76.4461 132.556 77.4166 132.792 75.487 130.723C73.7625 128.873 71.4175 127.62 69.6867 127.622C68.715 127.623 69.3481 128.221 72.093 129.898ZM253.138 130.159C253.138 131.229 258.366 134.51 265.169 137.709C271.084 140.491 273.382 141.637 283.789 146.992C298.016 154.314 306.3 158.239 311.576 160.158C317.044 162.147 322.423 164.72 329.337 168.654C333.338 170.931 342.304 175.264 343.014 175.264C343.252 175.264 344.187 176.039 345.092 176.986C346.694 178.662 346.704 178.708 345.456 178.708C344.75 178.708 340.641 177.005 336.325 174.923C326.927 170.388 324.148 169.327 323.467 170.01C322.455 171.023 329.098 175.886 336.935 179.87C341.272 182.074 346.428 184.907 348.393 186.164C351.846 188.374 362.159 193.643 366.864 195.602C368.124 196.126 371.605 197.929 374.598 199.607C387.962 207.101 407.518 217.276 414.23 220.229C416.018 221.015 418.983 222.673 420.819 223.912C422.655 225.152 430.215 229.787 437.62 234.213C468.364 252.591 474.732 256.42 477.855 258.413C479.661 259.565 483.786 262.173 487.022 264.21C493.324 268.176 511.007 279.922 520.427 286.401C523.589 288.576 528.055 291.647 530.35 293.226C539.01 299.18 548.634 306.476 563.535 318.38C577.558 329.583 581.424 332.475 581.424 331.761C581.424 331.544 574.221 324.92 567.671 319.115C563.359 315.293 555.673 309.044 550.3 304.991C547.204 302.655 542.177 298.578 539.128 295.93C532.902 290.522 512.948 275.321 509.693 273.507C508.528 272.857 504.531 270.478 500.813 268.221C494.375 264.313 491.82 262.54 483.009 255.867C474.549 249.46 460.157 240.402 444.781 231.81C440.37 229.345 435.858 226.764 434.755 226.076C433.652 225.388 428.754 222.807 423.87 220.34C418.986 217.874 413.958 215.159 412.698 214.308C411.437 213.456 407.957 211.62 404.963 210.228C398.958 207.435 378.637 197.259 371.447 193.445C367.29 191.239 364.486 189.916 355.252 185.8C352.435 184.544 347.098 180.266 347.098 179.263C347.098 179.017 347.677 178.953 348.387 179.121C350.156 179.54 371.447 189.906 373.402 191.301C374.869 192.347 375.05 192.36 375.924 191.484C376.758 190.649 377.203 190.626 379.777 191.287C384.662 192.542 384.405 191.115 379.313 188.712C367.502 183.139 364.129 181.357 361.971 179.55C360.633 178.431 358.48 177.038 357.186 176.455C355.891 175.872 353.543 174.812 351.967 174.101C347.408 172.04 337.61 167.939 330.769 165.229C322.972 162.139 318.84 160.309 313.234 157.461C310.837 156.245 306.067 154.062 302.635 152.611C293.639 148.81 293.692 148.839 291.81 146.793C290.495 145.364 286.793 143.513 276.055 138.918C268.335 135.615 260.271 132.109 258.136 131.127C253.768 129.119 253.138 128.996 253.138 130.159ZM341.941 131.132C341.941 131.836 343.332 132.362 344.545 132.118C345.186 131.988 344.917 131.708 343.719 131.258C342.692 130.872 341.941 130.819 341.941 131.132ZM97.8747 133.074L99.2205 134.509H97.7584C96.1496 134.509 94.7 133.18 95.2809 132.238C95.8441 131.325 96.404 131.505 97.8747 133.074ZM346.525 133.032C346.525 133.891 349.141 136.231 350.102 136.231C350.849 136.231 367.123 144.447 370.078 146.316C371.363 147.129 372.286 147.922 372.129 148.08C371.972 148.237 370.104 147.827 367.977 147.169C365.851 146.511 363.986 146.097 363.834 146.25C363.683 146.402 369.201 149.269 376.096 152.621C401.022 164.738 431.684 180.12 435.328 182.336C437.376 183.581 441.308 185.981 444.065 187.669C448.41 190.329 449.078 190.587 449.078 189.603C449.078 188.774 449.466 188.467 450.511 188.467C451.299 188.467 451.943 188.26 451.943 188.008C451.943 187.431 445.06 183.336 441.63 181.873C440.212 181.268 438.021 180.095 436.761 179.266C435.5 178.437 431.504 176.192 427.88 174.277C404.987 162.181 392.213 154.929 388.239 151.772C383.018 147.625 379.935 145.996 373.421 143.941C367.642 142.118 364.088 140.597 354.44 135.815C350.443 133.834 347.027 132.213 346.848 132.213C346.67 132.213 346.525 132.581 346.525 133.032ZM520.259 133.489C520.53 134.304 523.308 135.098 526.996 135.416C529.492 135.63 529.446 135.592 525.564 134.229C521.024 132.634 519.924 132.481 520.259 133.489ZM27.9777 136.231C27.9777 136.546 27.8643 136.805 27.7251 136.805C27.5859 136.805 27.3131 136.546 27.1183 136.231C26.9235 135.915 27.0375 135.657 27.3709 135.657C27.7044 135.657 27.9777 135.915 27.9777 136.231ZM232.934 137.434C233.091 138.035 233.439 138.527 233.708 138.527C233.977 138.527 235.898 140.206 237.976 142.258C240.056 144.31 242.245 145.989 242.843 145.989C243.441 145.989 244.778 146.717 245.813 147.607C246.848 148.496 248.726 149.746 249.987 150.384C254.603 152.72 258.067 154.871 260.586 156.964C263.07 159.029 280.367 167.975 289.232 171.781C291.715 172.847 294.329 174.469 295.424 175.621C296.747 177.013 297.643 177.514 298.39 177.276C300.22 176.694 307.694 178.789 308.002 179.971C308.202 180.733 308.832 181.004 310.408 181.004C313.121 181.004 315.021 182.77 313.84 184.194C312.955 185.264 312.733 185.074 318.923 188.54C322.722 190.668 324.217 192.065 323.482 192.803C323.085 193.2 316.35 190.72 313.695 189.199C313.442 189.055 313.313 189.635 313.408 190.49C313.519 191.48 313.22 192.277 312.584 192.688C311.148 193.617 307.705 192.287 293.529 185.325C286.912 182.074 280.855 179.219 280.07 178.979C278.785 178.587 278.721 178.639 279.433 179.498C281.299 181.751 287.698 185.969 293.8 188.967C299.111 191.578 300.897 192.19 303.103 192.156L305.834 192.114L304.838 193.818C302.826 197.258 303.412 197.272 290.378 193.461C287.699 192.678 283.059 191.466 280.065 190.768C273.764 189.298 270.975 188.17 263.368 184.012C258.831 181.533 257.069 180.894 253.523 180.443C249.391 179.918 243.921 178.365 240.247 176.672C239.302 176.237 234.983 174.463 230.65 172.731C220.461 168.658 211.926 166.874 217.004 169.879C218.949 171.031 219.274 171.82 217.8 171.82C217.271 171.82 216.044 172.108 215.073 172.46C212.442 173.413 205.051 171.268 200.357 168.189C197.088 166.045 196.223 165.753 192.121 165.416C189.6 165.208 186.893 164.841 186.105 164.599C184.837 164.209 184.76 164.265 185.429 165.082C185.845 165.59 187.005 166.184 188.007 166.401C191.856 167.234 200.359 172.439 200.406 173.99C200.451 175.486 198.804 175.225 191.821 172.633C187.89 171.173 178.099 167.708 170.063 164.934C162.028 162.159 154.422 159.433 153.162 158.876C150.001 157.48 141.862 155.186 141.301 155.532C140.491 156.034 141.975 158.018 143.435 158.385C144.211 158.58 144.704 158.971 144.53 159.253C144.356 159.535 144.487 159.766 144.821 159.766C145.154 159.766 145.428 159.478 145.428 159.126C145.428 158.087 150.128 159.064 155.335 161.185C157.921 162.238 162.615 164.184 165.766 165.508C168.918 166.832 173.831 168.773 176.687 169.821C179.542 170.868 184.44 172.869 187.573 174.265C190.704 175.663 194.685 177.258 196.418 177.812C198.151 178.365 203.952 180.696 209.309 182.991C214.666 185.287 220.724 187.737 222.773 188.437C228.042 190.238 231.966 191.936 233.833 193.223C235.14 194.123 235.377 194.623 235.098 195.892C234.771 197.385 235.021 197.589 240.838 200.557C247.18 203.794 248.98 205.115 247.049 205.112C245.806 205.109 237.428 202.547 223.755 197.988C218.467 196.224 213.955 194.787 213.729 194.794C213.108 194.813 216.097 197.05 216.764 197.064C217.668 197.084 226.026 199.808 227.333 200.509C228.701 201.242 228.867 202.554 227.653 203.021C226.749 203.368 222.7 202.114 220.777 200.891C220.141 200.487 217.946 199.551 215.897 198.809C209.684 196.562 207.727 195.416 208.042 194.209C208.337 193.081 207.927 192.852 202.475 191.097C198.001 189.658 196.574 190.145 199.712 192.042C201.704 193.245 204.439 195.816 204.439 196.484C204.439 196.764 204.036 197.077 203.542 197.179C202.775 197.337 202.806 197.535 203.757 198.555C204.439 199.285 207.053 200.333 210.526 201.269C223.736 204.828 237.669 210.076 237.669 211.494C237.669 212.265 236.448 212.113 232.512 210.854C228.363 209.525 226.685 209.391 227.127 210.423C227.844 212.096 231.541 214.206 240.425 218.013C249.133 221.746 251.73 223.362 250.691 224.403C249.873 225.223 236.974 221.22 228.788 217.606C225.952 216.354 221.827 214.698 219.622 213.927C217.416 213.155 214.451 212.036 213.033 211.439C211.615 210.843 205.427 208.767 199.283 206.827C193.138 204.888 185.988 202.272 183.394 201.015C177.35 198.087 159.001 191.911 156.344 191.911C154.77 191.911 156.181 193.022 161.04 195.608C168.399 199.524 170.655 200.998 170.491 201.781C170.287 202.755 173.145 204.022 178.237 205.213C180.684 205.786 184.165 207 185.972 207.911C187.778 208.822 191.813 210.656 194.938 211.986C198.063 213.316 201.636 215.047 202.878 215.833C204.121 216.619 208.263 218.536 212.082 220.094C215.901 221.653 219.389 223.29 219.832 223.734C221.856 225.763 218.166 227.357 215.595 225.565C213.745 224.275 210.935 223.911 208.799 224.685L206.828 225.399L209.214 227.167L211.601 228.935L209.824 229.109C208.289 229.258 208.083 229.47 208.31 230.661C208.643 232.408 206.796 232.975 202.594 232.417C198.428 231.863 196.136 230.753 194.928 228.705C193.738 226.686 192.976 226.527 190.932 227.868C189.806 228.608 188.694 228.735 185.754 228.46C182.947 228.197 182.064 228.284 182.224 228.81C182.406 229.409 190.445 232.243 200.715 235.329C202.29 235.802 204.611 236.661 205.871 237.237C207.132 237.813 208.872 238.446 209.739 238.643C211.644 239.078 211.796 239.956 210.025 240.298C208.886 240.517 208.914 240.555 210.264 240.625C211.104 240.668 211.882 240.431 211.992 240.099C212.128 239.693 212.908 239.74 214.387 240.243C215.594 240.654 216.492 241.248 216.383 241.564C216.165 242.192 215.817 242.192 213.456 241.568C212.108 241.211 211.931 241.296 212.254 242.141C212.587 243.011 237.37 255.627 238.744 255.627C239.021 255.627 239.577 256.026 239.98 256.513C240.538 257.186 240.554 257.558 240.048 258.066C239.21 258.905 233.939 257.893 230.647 256.261C228.611 255.251 228.497 255.244 229.341 256.178C230.311 257.253 231.764 257.843 252.565 265.606C259.655 268.252 268.378 271.625 271.95 273.101C276.48 274.973 279.743 275.931 282.741 276.267C286.628 276.704 287.213 276.94 288.852 278.733C289.849 279.823 291.76 281.275 293.099 281.96C295.893 283.387 296.243 284.721 293.959 285.236C293.092 285.432 291.481 285.813 290.378 286.083C287.453 286.8 283.773 286.899 279.063 286.386C275.018 285.946 274.176 286.235 275.536 287.597C276.982 289.046 275.724 290.139 270.612 291.877C262.711 294.561 258.36 295.69 254.284 296.111C252.235 296.323 249.104 296.858 247.326 297.301C245.547 297.743 241.937 298.118 239.305 298.134C236.672 298.151 232.713 298.398 230.507 298.684C228.301 298.971 220.696 299.739 213.606 300.393C196.317 301.988 187.666 303.719 183.849 306.35C182.267 307.44 179.949 308.506 178.697 308.717C177.445 308.929 174.668 309.743 172.526 310.526C168.015 312.174 163.344 313.433 153.735 315.589C149.954 316.438 146.143 317.407 145.265 317.742C143.816 318.295 143.751 318.439 144.542 319.315C145.021 319.846 145.692 321.081 146.033 322.062C146.851 324.412 147.695 324.651 151.58 323.638C155.765 322.545 158.598 322.56 160.196 323.682C163.441 325.958 160.6 329.385 153.327 331.967C150.4 333.005 147.915 333.931 147.804 334.024C147.693 334.118 148.015 334.785 148.52 335.507C149.025 336.229 149.438 337.274 149.438 337.829C149.438 339.122 146.109 340.824 141.856 341.703C138.041 342.492 137.43 343.104 139.094 344.473C140.163 345.353 140.224 345.683 139.644 347.471C138.408 351.292 137.639 352.356 135.093 353.771C131.885 355.555 133.114 355.94 138.006 354.685C144.622 352.986 146.989 353.875 145.3 357.424C144.429 359.255 144.447 359.323 146.353 361.406C147.482 362.641 148.292 364.13 148.292 364.97C148.292 366.361 150.049 368.71 151.089 368.71C151.846 368.71 155.167 372.266 155.167 373.076C155.167 373.463 154.458 374.319 153.592 374.976C152.056 376.142 152.044 376.194 153.128 377.033C153.74 377.507 155.17 377.894 156.307 377.894C157.783 377.894 159.225 378.509 161.354 380.047C164.586 382.381 165.414 384.072 164.407 386.287C164.052 387.068 163.761 388.292 163.761 389.007C163.761 389.722 162.988 391.05 162.042 391.958C159.952 393.964 159.626 396.837 161.488 396.837C162.128 396.837 163.578 396.449 164.709 395.976C167.927 394.629 169.59 394.88 171.602 397.017C174.795 400.408 181.019 401.236 187.324 399.108C190.199 398.138 190.954 398.064 191.699 398.678C192.194 399.086 193.491 399.42 194.581 399.42C197.592 399.42 198.239 400.934 196.026 402.799C195.063 403.612 193.966 405.024 193.588 405.937C192.967 407.438 185.412 413.479 182.991 414.41C182.062 414.767 181.798 416.745 182.533 417.844C182.764 418.19 183.645 418.642 184.49 418.849C185.498 419.096 186.089 419.669 186.209 420.516C186.344 421.466 187.374 422.281 190.116 423.603C196.715 426.785 196.676 427.398 189.783 428.774C187.01 429.327 184.224 430.325 182.619 431.339C180.494 432.681 179.124 433.062 175.457 433.325C170.793 433.661 159.178 436.801 159.178 437.727C159.178 438.011 159.716 438.072 160.375 437.863C162.551 437.171 176.461 436.311 189.4 436.068C200.371 435.862 202.147 435.947 202.147 436.676C202.147 437.143 201.877 437.692 201.546 437.897C201.216 438.102 196.768 438.753 191.663 439.344C173.93 441.397 172.047 441.677 168.058 442.864C163.663 444.171 162.437 444.876 162.992 445.775C163.464 446.54 173.909 445.934 180.09 444.783C182.61 444.314 186.556 443.924 188.856 443.918C192.994 443.907 193.047 443.926 193.639 445.629L194.239 447.351H201.374C205.81 447.351 210.012 447.694 212.481 448.256C216.598 449.194 217.087 449.188 234.229 447.987C243.035 447.371 251.129 445.989 251.741 444.997C251.916 444.713 252.671 444.481 253.418 444.481C254.389 444.481 254.829 444.848 254.96 445.767C255.175 447.279 256.57 447.56 267.142 448.222C275.074 448.719 276.086 447.744 268.297 447.111C265.588 446.89 263.003 446.568 262.551 446.395C259.536 445.236 265.456 443.646 270.79 444.183C275.375 444.644 277.169 443.656 272.908 443.016C269.827 442.553 269.107 441.795 271.24 441.259C273.085 440.794 295.231 441.471 303.269 442.236C314.845 443.339 320.506 443.526 319.808 442.782C318.919 441.834 310.209 440.707 295.534 439.639C288.759 439.146 281.798 438.638 280.065 438.51C278.332 438.381 276.141 437.956 275.195 437.565L273.477 436.854L275.422 436.255C276.795 435.833 280.084 435.859 286.594 436.346C291.669 436.725 298.449 437.032 301.662 437.027C313.571 437.01 325.258 438.414 363.999 444.516C376.143 446.429 391.085 449.176 407.828 452.573C427.188 456.501 432.652 457.594 436.188 458.247C438.078 458.596 442.332 459.381 445.641 459.99C451.296 461.031 454.9 461.987 472.568 467.128C481.781 469.808 486.827 470.881 487.22 470.243C487.392 469.965 487.278 469.738 486.967 469.738C486.657 469.738 484.449 468.834 482.061 467.729C479.673 466.624 477.503 465.72 477.238 465.72C476.973 465.72 476.265 465.169 475.665 464.495C474.589 463.289 474.59 463.275 475.72 463.605C479.424 464.687 489.775 466.982 491.475 467.098C492.578 467.173 494.206 467.54 495.093 467.912C495.98 468.285 497.087 468.59 497.554 468.59C498.02 468.59 501.033 469.263 504.248 470.087C507.464 470.91 511.9 471.922 514.106 472.336C525.511 474.479 527.097 475.004 533.521 478.77C535.185 479.746 539.784 479.675 542.267 478.635C545.009 477.488 547.341 477.55 551.715 478.888C558.951 481.102 571.513 484.085 576.87 484.861C582.515 485.68 585.433 486.782 590.217 489.904C593.731 492.197 598.841 493.312 604.055 492.924C610.722 492.428 610.429 492.614 610.848 488.605C611.05 486.659 611.461 484.772 611.759 484.411C612.102 483.998 612.078 482.873 611.693 481.353C611.358 480.031 611.224 478.582 611.395 478.134C611.749 477.21 618.356 474.883 620.097 475.069C620.991 475.164 621.209 474.89 621.093 473.823C620.848 471.592 621.762 471.016 624.811 471.48C627.772 471.93 628.976 471.699 628.98 470.681C628.982 470.32 628.165 467.987 627.165 465.496C625.434 461.184 625.396 460.93 626.384 460.207C626.954 459.789 627.678 459.361 627.991 459.256C628.9 458.953 626.52 454.237 623.865 451.082C622.538 449.503 620.979 447.308 620.401 446.203C619.822 445.098 618.689 443.577 617.883 442.822C616.622 441.643 616.462 441.116 616.744 439.058C617.004 437.156 616.756 436.059 615.535 433.72C614.69 432.101 613.614 430.456 613.143 430.064C611.984 429.101 610.644 426.418 610.644 425.063C610.644 424.454 610.271 423.647 609.816 423.268C609.36 422.889 608.562 421.294 608.041 419.723C606.809 416.009 599.53 408.343 595.653 406.678C592.52 405.332 591.847 404.478 593.161 403.515C594.045 402.868 593.953 402.508 592.073 399.295C590.565 396.719 590.018 395.116 590.018 393.28C590.018 390.52 589.266 389.131 585.806 385.502C583.994 383.602 583.634 382.913 584.172 382.374C584.551 381.994 584.862 381.238 584.862 380.694C584.862 379.48 582.165 376.172 581.176 376.172C580.78 376.172 579.969 375.632 579.372 374.972C578.309 373.795 578.309 373.757 579.382 372.971C580.418 372.212 580.29 371.976 576.94 368.481C574.995 366.451 573.403 364.51 573.403 364.168C573.403 363.172 575.101 363.444 576.685 364.692C578.565 366.174 580.971 366.266 580.45 364.835C579.709 362.8 566.202 347.178 554.766 335.129C543.921 323.703 541.895 321.28 541.884 319.72C541.879 319.04 541.686 318.217 541.454 317.892C541.042 317.313 533.41 310.867 527.981 306.51C526.474 305.302 523.099 302.28 520.48 299.797C516 295.548 513.349 293.48 500.657 284.331C494.74 280.066 493.854 278.707 498.026 280.296C500.469 281.226 499.75 279.919 496.533 277.583C492.884 274.932 485.05 269.863 474.869 263.564C470.62 260.935 464.691 257.263 461.692 255.403C444.654 244.835 434.573 239.091 420.719 232.059C412.211 227.741 402.929 222.742 400.093 220.95C395.356 217.957 381.733 211.025 372.829 207.077C370.808 206.18 366.835 204.134 363.999 202.528C358.957 199.673 357.856 199.168 350.822 196.485C344.808 194.19 338.903 190.976 335.11 187.933C330.726 184.416 324.94 181.563 318.05 179.523C315.277 178.702 312.32 177.819 311.478 177.561C307.511 176.346 297.257 171.975 291.315 168.965C280.251 163.362 276.432 160.991 275.034 158.854C274.316 157.758 272.771 156.448 271.598 155.942C270.426 155.437 267.661 154.152 265.456 153.088C263.25 152.024 259.64 150.466 257.435 149.627C250.9 147.139 241.5 142.565 239.96 141.123C239.173 140.385 237.205 139.007 235.588 138.061C233.024 136.561 232.685 136.48 232.934 137.434ZM536.478 137.301C537.16 137.921 540.747 139.143 540.747 138.755C540.747 138.446 537.048 136.805 536.353 136.805C536.123 136.805 536.179 137.028 536.478 137.301ZM542.811 139.579C542.626 139.879 543.439 140.245 544.618 140.392C547.915 140.804 548.156 140.108 544.955 139.421C543.961 139.208 542.996 139.279 542.811 139.579ZM62.8907 144.31C67.5818 147.851 68.3667 148.859 66.4331 148.859C65.4775 148.859 63.9631 148.262 56.7751 145.049C53.3702 143.528 53.0988 140.823 56.3502 140.823C57.8134 140.823 59.3752 141.656 62.8907 144.31ZM388.241 142.363C388.654 142.529 389.149 142.508 389.339 142.318C389.529 142.127 389.191 141.992 388.587 142.016C387.92 142.044 387.784 142.18 388.241 142.363ZM697.156 147.711C697.156 148.027 697.413 148.285 697.728 148.285C698.044 148.285 698.301 148.027 698.301 147.711C698.301 147.395 698.044 147.137 697.728 147.137C697.413 147.137 697.156 147.395 697.156 147.711ZM323.892 150.585C323.429 151.336 321.889 150.608 321.889 149.639C321.889 148.993 322.136 148.951 323.051 149.442C323.69 149.785 324.068 150.299 323.892 150.585ZM97.8747 151.729C97.8747 152.045 98.1479 152.303 98.4814 152.303C98.8148 152.303 98.9288 152.045 98.7341 151.729C98.5393 151.414 98.2666 151.155 98.1273 151.155C97.9881 151.155 97.8747 151.414 97.8747 151.729ZM158.625 154.223C159.087 154.648 161.785 155.954 164.621 157.126C167.457 158.297 170.293 159.49 170.923 159.774C175.089 161.659 181.722 163.834 182.808 163.671C183.915 163.506 183.649 163.175 180.949 161.361C179.216 160.196 176.638 158.98 175.22 158.659C173.802 158.337 171.224 157.521 169.49 156.846C166.493 155.678 159.089 153.451 158.203 153.451C157.974 153.451 158.164 153.799 158.625 154.223ZM268.607 155.747C268.607 156.063 269.445 156.326 270.469 156.33C271.735 156.336 272.081 156.498 271.551 156.834C271.122 157.106 270.293 157.203 269.708 157.05C268.415 156.711 266.985 155.173 267.964 155.173C268.317 155.173 268.607 155.432 268.607 155.747ZM68.5122 160.167C70.7569 161.829 70.883 162.636 68.8978 162.636C67.2782 162.636 63.7712 159.569 64.339 158.649C64.7813 157.932 66.1833 158.441 68.5122 160.167ZM433.609 158.618C434.082 158.924 434.856 159.174 435.328 159.174C436.092 159.174 436.092 159.112 435.328 158.618C434.856 158.312 434.082 158.061 433.609 158.061C432.846 158.061 432.846 158.123 433.609 158.618ZM50.3826 164.406C53.108 166.568 53.2638 167.502 50.818 167.012C48.9491 166.637 46.8842 164.746 46.8842 163.409C46.8842 162.185 47.9757 162.496 50.3826 164.406ZM83.4524 164.634C82.9459 165.748 82.511 165.984 81.4591 165.72C78.4105 164.953 80.668 168.121 84.3846 169.824C89.8165 172.313 101.586 177.56 101.738 177.56C101.819 177.56 101.885 177.219 101.885 176.803C101.885 175.847 100.027 174.222 95.9388 171.602C94.1776 170.473 91.1875 168.123 89.2951 166.38C87.4021 164.636 85.4589 163.21 84.9765 163.21C84.4946 163.21 83.8082 163.85 83.4524 164.634ZM446.787 164.575C446.787 164.694 447.238 165.146 447.789 165.579C448.698 166.293 448.718 166.273 448.006 165.362C447.257 164.406 446.787 164.102 446.787 164.575ZM107.041 167.515C107.434 167.988 108.174 168.368 108.687 168.358C109.471 168.342 109.442 168.205 108.508 167.497C107.06 166.4 106.127 166.411 107.041 167.515ZM74.9598 170.382C74.3869 171.074 74.4317 171.519 75.1897 172.678C76.0245 173.954 76.5257 174.116 79.6499 174.116C81.5858 174.116 83.0622 174.015 82.931 173.891C80.6227 171.719 77.4883 169.524 76.6925 169.524C76.1305 169.524 75.3512 169.91 74.9598 170.382ZM72.6659 174.116C73.7768 174.835 74.3847 174.835 74.3847 174.116C74.3847 173.8 73.8049 173.546 73.0956 173.551C72.0535 173.558 71.9709 173.666 72.6659 174.116ZM79.5748 177.632C82.4813 179.925 88.1527 182.803 89.4102 182.625C90.4358 182.479 90.6708 182.134 90.5138 181.004C90.4044 180.215 90.2473 179.498 90.1648 179.411C89.6291 178.844 83.3544 177.074 81.0071 176.827L78.1757 176.529L79.5748 177.632ZM272.331 176.986C272.526 177.302 272.798 177.56 272.937 177.56C273.077 177.56 273.19 177.302 273.19 176.986C273.19 176.671 272.917 176.412 272.583 176.412C272.25 176.412 272.136 176.671 272.331 176.986ZM471.661 178.397C472.896 179.515 474.028 180.308 474.178 180.157C474.644 179.691 473.022 178.099 471.178 177.211C469.5 176.404 469.522 176.459 471.661 178.397ZM274.479 177.956C275.031 178.1 275.933 178.1 276.484 177.956C277.036 177.812 276.585 177.693 275.482 177.693C274.379 177.693 273.927 177.812 274.479 177.956ZM475.29 180.81C475.684 180.97 476.329 180.97 476.722 180.81C477.116 180.651 476.794 180.521 476.006 180.521C475.218 180.521 474.896 180.651 475.29 180.81ZM478.871 181.822C478.871 182.306 481.98 185.023 482.534 185.023C483.213 185.023 481.193 182.783 479.879 182.079C479.325 181.782 478.871 181.666 478.871 181.822ZM97.3017 182.751C97.3017 183.08 98.7908 184.055 100.61 184.917C102.43 185.779 105.806 187.741 108.111 189.277C112.71 192.34 122.554 196.908 125.159 197.187C126.651 197.347 126.797 197.209 126.693 195.735C126.541 193.581 125.718 192.679 123.181 191.886C117.78 190.197 110.972 187.607 107.26 185.83C103.182 183.877 98.7467 182.152 97.8025 182.152C97.5269 182.152 97.3017 182.422 97.3017 182.751ZM181.192 183.23C181.636 183.95 185.567 185.753 185.921 185.399C186.083 185.236 185.17 184.568 183.892 183.915C181.357 182.619 180.715 182.456 181.192 183.23ZM66.0773 187.893C66.6473 188.524 67.5011 189.041 67.9738 189.041C68.6785 189.041 68.6463 188.834 67.796 187.893C67.226 187.261 66.3723 186.745 65.8997 186.745C65.195 186.745 65.227 186.951 66.0773 187.893ZM69.2283 190.453C69.2283 191.498 76.6444 197.738 77.36 197.296C78.126 196.821 77.2895 194.629 75.8996 193.469C75.2241 192.905 73.4468 191.803 71.9498 191.02C69.787 189.888 69.2283 189.771 69.2283 190.453ZM433.609 193.014C433.609 193.593 433.932 194.325 434.326 194.64C435.504 195.584 446.755 201.584 448.11 201.99C448.8 202.197 452.535 203.92 456.409 205.819C460.284 207.718 463.635 209.084 463.857 208.856C464.7 207.99 458.849 203.808 452.516 200.751C448.892 199.001 444.223 196.685 442.14 195.604C440.056 194.523 437.285 193.261 435.981 192.8C433.759 192.015 433.609 192.028 433.609 193.014ZM80.9521 202.278C80.2416 203.429 82.0086 206.344 84.6401 208.36C86.0896 209.471 89.467 211.429 92.1454 212.711C97.115 215.09 99.5935 216.857 99.5935 218.019C99.5935 218.769 109.152 224.408 114.131 226.596C116.813 227.774 118.414 228.074 122.009 228.074C124.491 228.074 126.521 227.872 126.521 227.624C126.521 227.376 124.91 226.375 122.94 225.399C120.971 224.425 118.141 222.626 116.651 221.402C115.161 220.178 112.325 218.578 110.348 217.846C101.995 214.752 100.179 213.982 94.8343 211.269C89.4694 208.546 87.3219 206.69 87.6828 205.086C87.8679 204.265 83.8024 201.693 82.2962 201.678C81.7634 201.673 81.1583 201.943 80.9521 202.278ZM137.536 202.362C137.668 202.77 139.434 203.661 141.459 204.342C151.993 207.884 157.459 209.499 157.459 209.073C157.459 208.347 156.081 207.747 148.006 204.955C138.732 201.748 137.214 201.373 137.536 202.362ZM48.8929 204.543C49.4647 205.177 50.057 205.57 50.2089 205.418C50.5939 205.032 49.1649 203.391 48.4442 203.391C48.1188 203.391 48.3206 203.91 48.8929 204.543ZM465.98 210.854C466.55 211.485 467.108 212.002 467.219 212.002C467.331 212.002 467.1 211.485 466.706 210.854C466.313 210.222 465.755 209.706 465.466 209.706C465.179 209.706 465.41 210.222 465.98 210.854ZM162.615 210.834C162.615 211.138 163.104 211.649 163.701 211.97C164.914 212.62 171.209 213.482 171.209 212.998C171.209 212.72 163.798 210.28 162.956 210.28C162.769 210.28 162.615 210.529 162.615 210.834ZM172.928 213.763C172.928 215.351 174.66 216.223 183.091 218.882C187.263 220.198 190.823 221.513 191.003 221.804C191.182 222.096 192.514 222.334 193.962 222.334C196.56 222.334 196.581 222.318 195.559 221.186C194.541 220.059 194.558 220.038 196.472 220.047C198.656 220.056 201.075 221.102 201.433 222.191C201.582 222.643 201.111 222.908 200.156 222.908C198.01 222.908 198.859 223.851 201.425 224.317C202.61 224.533 204.159 224.848 204.869 225.019C206.83 225.491 206.406 224.408 204.296 223.557C203.227 223.126 202.747 222.683 203.168 222.517C203.572 222.357 204.554 222.654 205.35 223.176C206.146 223.699 207.491 224.041 208.339 223.938C209.812 223.758 209.765 223.686 207.304 222.339C204.044 220.555 189.1 214.933 188.695 215.338C188.529 215.505 188.787 216.243 189.268 216.978C190.113 218.272 190.088 218.316 188.498 218.316C186.757 218.316 179.439 215.833 175.363 213.859C173.011 212.72 172.928 212.717 172.928 213.763ZM248.182 216.037C254.395 218.366 254.945 220.28 248.934 218.649C244.719 217.507 241.454 215.701 242 214.817C242.426 214.126 243.817 214.401 248.182 216.037ZM472.855 216.02C473.05 216.336 473.322 216.594 473.462 216.594C473.601 216.594 473.714 216.336 473.714 216.02C473.714 215.704 473.441 215.446 473.107 215.446C472.774 215.446 472.66 215.704 472.855 216.02ZM162.329 218.281C164.834 221.138 174.075 224.635 179.089 224.622C181.431 224.615 182.133 224.452 181.522 224.054C180.282 223.248 174.006 220.97 168.194 219.216C165.433 218.382 162.726 217.536 162.178 217.337C161.322 217.024 161.343 217.155 162.329 218.281ZM193.811 219.528C194.778 220.433 192.687 220.086 191.514 219.147C190.446 218.291 190.458 218.271 191.835 218.638C192.622 218.847 193.512 219.248 193.811 219.528ZM200.428 226.926C200.901 227.232 201.675 227.469 202.147 227.451C202.714 227.43 202.616 227.252 201.861 226.926C200.286 226.248 199.381 226.248 200.428 226.926ZM128.706 228.466C129.119 228.632 129.613 228.612 129.803 228.421C129.994 228.23 129.655 228.095 129.052 228.12C128.384 228.147 128.248 228.283 128.706 228.466ZM204.905 228.466C205.318 228.632 205.812 228.612 206.002 228.421C206.193 228.23 205.855 228.095 205.251 228.12C204.583 228.147 204.447 228.283 204.905 228.466ZM132.494 229.727C132.665 230.005 133.389 230.38 134.103 230.56C135.355 230.876 135.362 230.858 134.289 230.055C133.057 229.133 132.01 228.942 132.494 229.727ZM218.476 230.485C218.872 230.899 218.342 230.96 216.757 230.682C215.496 230.462 214.207 230.012 213.892 229.682C213.496 229.268 214.026 229.207 215.611 229.485C216.871 229.705 218.161 230.155 218.476 230.485ZM140.751 239.155C141.683 240.28 146.212 242.068 147.248 241.719C147.953 241.481 144.372 239.633 141.329 238.666C140.155 238.292 140.085 238.352 140.751 239.155ZM514.472 240.064C514.72 240.79 538.576 256.845 538.91 256.511C539.038 256.383 538.962 255.985 538.741 255.627C537.299 253.288 513.852 238.253 514.472 240.064ZM500.069 241.787C500.069 242.712 502.007 244.545 507.025 248.367C514.703 254.215 540.581 271.012 543.803 272.238C547.262 273.555 546.327 272.025 541.767 268.908C539.144 267.115 534.013 263.423 530.365 260.705C522.767 255.044 510.611 246.587 505.535 243.43C502.203 241.358 500.069 240.716 500.069 241.787ZM261.991 244.813C263.522 245.512 263.957 246.456 262.734 246.425C261.918 246.404 260.013 245.066 260.013 244.514C260.013 244.003 260.318 244.049 261.991 244.813ZM286.94 253.618C286.94 254.705 286.319 254.711 284.901 253.637C283.836 252.83 283.856 252.793 285.365 252.776C286.391 252.764 286.94 253.057 286.94 253.618ZM540.999 258.229C541.611 258.692 542.385 259.063 542.718 259.053C543.052 259.043 542.824 258.656 542.213 258.192C541.601 257.729 540.827 257.357 540.494 257.368C540.16 257.378 540.388 257.765 540.999 258.229ZM544.757 259.862C544.757 259.981 545.208 260.434 545.76 260.867C546.668 261.581 546.688 261.56 545.976 260.65C545.227 259.694 544.757 259.39 544.757 259.862ZM281.211 266.698C286.41 268.744 292.727 271.381 295.248 272.559C297.769 273.736 303.054 276.115 306.993 277.845C316.889 282.193 320.17 283.848 320.17 284.493C320.17 285.812 313.945 283.575 301.108 277.642C296.768 275.637 293.061 273.996 292.871 273.996C292.681 273.996 290.302 273.115 287.584 272.038C284.867 270.961 279.807 268.983 276.341 267.642C269.325 264.927 267.3 263.815 267.825 262.963C268.42 262 271.349 262.816 281.211 266.698ZM494.722 278.97C494.211 279.482 492.169 278.584 491.83 277.699C491.553 276.978 491.765 276.987 493.263 277.763C494.229 278.263 494.886 278.806 494.722 278.97ZM264.023 280.104C264.023 280.837 269.264 284.13 272.762 285.594C273.698 285.986 273.705 285.921 272.854 284.621C272.353 283.854 270.334 282.441 268.367 281.481C264.682 279.682 264.023 279.473 264.023 280.104ZM571.112 280.536C571.112 280.66 571.512 280.915 572.001 281.104C572.511 281.299 572.74 281.203 572.54 280.878C572.204 280.332 571.112 280.071 571.112 280.536ZM501.534 282.272C502.734 283.152 503.278 283.055 502.671 282.071C502.463 281.734 501.872 281.458 501.358 281.458C500.576 281.458 500.604 281.592 501.534 282.272ZM565.382 288.224C565.382 289.313 570.253 292.363 571.932 292.325C573.048 292.299 573.372 292.142 572.818 291.894C572.338 291.679 570.745 290.665 569.277 289.638C566.646 287.799 565.382 287.34 565.382 288.224ZM216.184 290.069C216.379 290.384 216.909 290.643 217.364 290.643C217.818 290.643 218.189 290.384 218.189 290.069C218.189 289.753 217.658 289.495 217.01 289.495C216.361 289.495 215.989 289.753 216.184 290.069ZM574.095 294.086C574.217 295.129 575.906 296.829 580.279 300.312C586.764 305.477 600.322 316.617 608.638 323.614C613.864 328.011 615.59 329.04 613.693 326.626C611.982 324.45 597.962 312.387 586.008 302.806C579.863 297.882 574.631 293.582 574.381 293.252C574.128 292.918 574.001 293.288 574.095 294.086ZM214.023 306.488C213.833 306.679 213.339 306.699 212.926 306.533C212.468 306.35 212.604 306.214 213.272 306.187C213.876 306.162 214.214 306.297 214.023 306.488ZM527.569 319.918C527.569 320.234 527.456 320.492 527.317 320.492C527.177 320.492 526.905 320.234 526.71 319.918C526.515 319.602 526.629 319.344 526.963 319.344C527.296 319.344 527.569 319.602 527.569 319.918ZM532.146 323.072C533.735 323.895 535.59 325.983 535.59 326.948C535.59 327.584 532.339 325.845 530.976 324.48C529.919 323.42 529.493 322.214 530.176 322.214C530.349 322.214 531.236 322.6 532.146 323.072ZM540.374 329.246C544.975 332.521 560.46 346.019 566.413 351.945C569.508 355.026 570.048 356.745 568.043 357.132C567.344 357.267 565.237 355.636 561.747 352.259C558.863 349.468 552.893 344.084 548.481 340.296C539.052 332.198 537 330.176 536.581 328.57C536.134 326.857 537.313 327.067 540.374 329.246ZM618.406 332.245C620.74 335.311 626.93 340.695 627.199 339.893C627.443 339.165 620.189 331.949 618.073 330.814C616.908 330.189 616.937 330.316 618.406 332.245ZM585.75 336.423C586.049 336.66 587.293 337.758 588.514 338.862C590.134 340.327 590.561 340.532 590.094 339.623C589.373 338.221 586.746 335.99 585.816 335.99C585.443 335.99 585.417 336.158 585.75 336.423ZM591.63 340.975C592.043 341.141 592.537 341.12 592.728 340.929C592.918 340.739 592.58 340.603 591.976 340.628C591.309 340.656 591.173 340.792 591.63 340.975ZM598.075 347.525C598.056 348.029 598.555 348.909 599.185 349.48C599.835 350.069 600.331 350.232 600.331 349.856C600.331 349.491 600.065 349.193 599.74 349.193C599.414 349.193 598.915 348.612 598.63 347.901C598.293 347.061 598.099 346.93 598.075 347.525ZM604.055 353.262C605.315 354.694 606.458 355.782 606.595 355.678C607.021 355.353 604.659 352.509 603.177 351.561C602.157 350.909 602.403 351.384 604.055 353.262ZM570.825 360.673C571.02 360.989 570.906 361.247 570.573 361.247C570.239 361.247 569.966 360.989 569.966 360.673C569.966 360.358 570.079 360.099 570.218 360.099C570.358 360.099 570.63 360.358 570.825 360.673ZM582.57 368.136C582.57 368.451 582.844 368.71 583.177 368.71C583.51 368.71 583.625 368.451 583.43 368.136C583.235 367.82 582.962 367.562 582.823 367.562C582.684 367.562 582.57 367.82 582.57 368.136ZM390.64 375.598C390.64 375.914 390.269 376.172 389.814 376.172C389.36 376.172 388.83 375.914 388.635 375.598C388.44 375.282 388.812 375.024 389.46 375.024C390.109 375.024 390.64 375.282 390.64 375.598ZM404.677 377.586L406.395 378.375L404.867 378.422C403.021 378.478 401.526 377.957 401.526 377.259C401.526 376.543 402.659 376.661 404.677 377.586ZM420.146 380.764C420.34 381.08 420.098 381.338 419.607 381.338C419.116 381.338 418.713 381.08 418.713 380.764C418.713 380.449 418.956 380.19 419.252 380.19C419.549 380.19 419.951 380.449 420.146 380.764ZM169.347 383.778C169.216 384.173 168.765 384.495 168.345 384.495C167.925 384.495 167.473 384.173 167.342 383.778C167.2 383.351 167.606 383.06 168.345 383.06C169.083 383.06 169.489 383.351 169.347 383.778ZM442.203 385.93C442.944 386.41 442.929 386.488 442.094 386.496C441.561 386.5 440.966 386.246 440.771 385.93C440.323 385.204 441.082 385.204 442.203 385.93ZM458.209 389.43C462.638 390.661 464.573 391.671 462.501 391.671C460.768 391.671 453.639 389.581 452.922 388.863C451.972 387.911 453.224 388.046 458.209 389.43ZM473.462 393.661C474.53 394.471 474.513 394.505 473.045 394.522C471.177 394.545 469.704 394.02 469.704 393.331C469.704 392.514 472.242 392.738 473.462 393.661ZM154.404 395.498C154.193 395.708 154.021 396.071 154.021 396.305C154.021 396.856 156.236 396.278 156.643 395.619C157.002 395.036 154.975 394.925 154.404 395.498ZM575.375 398.506C575.552 398.791 575.181 398.891 574.55 398.725C573.212 398.375 573.043 397.985 574.229 397.985C574.683 397.985 575.199 398.219 575.375 398.506ZM497.204 400.855C497.884 401.295 497.765 401.411 496.631 401.411C495.844 401.411 494.812 401.161 494.34 400.855C493.66 400.415 493.779 400.299 494.913 400.299C495.7 400.299 496.732 400.549 497.204 400.855ZM591.164 403.878C591.164 404.49 589.041 403.893 587.297 402.791C584.986 401.331 585.941 400.837 588.586 402.125C590.004 402.815 591.164 403.604 591.164 403.878ZM505.378 403.44C508.141 404.343 510.188 405.297 509.927 405.558C509.366 406.12 500.331 403.095 499.329 402.009C498.78 401.415 498.815 401.316 499.496 401.528C499.969 401.676 502.616 402.536 505.378 403.44ZM519.073 408.119C520.752 409.642 520.287 410.1 518.116 409.063C517.013 408.536 516.111 407.894 516.111 407.637C516.111 406.825 517.982 407.13 519.073 408.119ZM558.078 407.549C557.684 407.709 557.039 407.709 556.645 407.549C556.252 407.39 556.574 407.26 557.362 407.26C558.149 407.26 558.472 407.39 558.078 407.549ZM562.793 410.057C562.416 410.668 559.653 409.066 559.653 408.236C559.653 407.949 560.435 408.119 561.391 408.614C562.346 409.109 562.977 409.759 562.793 410.057ZM534.822 413.586C537.79 414.679 540.008 416.386 538.382 416.324C536.777 416.263 529.069 413.113 528.841 412.425C528.56 411.584 530.311 411.923 534.822 413.586ZM549.914 419.133C551.326 420.058 551.329 420.074 550.096 420.256C548.534 420.488 545.168 418.802 545.646 418.028C546.065 417.348 547.921 417.829 549.914 419.133ZM178.658 420.206L177.257 421.189L178.674 421.584C181.282 422.313 181.953 422.138 182.235 420.659C182.458 419.49 182.282 419.224 181.284 419.224C180.609 419.224 179.428 419.666 178.658 420.206Z" fill="#E3E9FB"/>
</svg>
